<svg xmlns="http://www.w3.org/2000/svg" xml:space="preserve" id="Layer_1" x="0" y="0" style="enable-background:new 0 0 400 225" version="1.1" viewBox="0 0 400 225"><style id="style943" type="text/css">.st0{fill:#94e4ea}.st2{fill:#fff}.st3{fill:#017c6b}.st4{opacity:.1}</style><g id="g11277" transform="translate(0 11.815)"><g id="g11236" transform="translate(9.124)"><g id="g2613" transform="rotate(3.01 803.678 572.547)"><path id="rect955" d="M119.042 42.982h82.1v111.8h-82.1z" class="st0"/><circle id="circle959" cx="162.842" cy="83.582" r="29.7" class="st2" style="opacity:.38"/><circle id="circle963" cx="163.042" cy="83.182" r="20.3" class="st2"/><path id="polygon967" d="m255.3 114.8.2 34.2 81.8-6.9v-19.8l-10 9.4-27.9-19-26.1 16.4z" class="st3" transform="translate(-136.158 -14.818)"/><path id="polygon971" d="M309.6 142.3h5.7l12.2-10.8-3-1.7z" style="opacity:.1" transform="translate(-136.158 -14.818)"/><path id="polygon977" d="m271.5 127.6-16.1 9.6-.1 3.4 18-11.6z" style="opacity:.1" transform="translate(-136.158 -14.818)"/><path id="path983" d="M132.442 129.182s13.8-6 33.5-6.5c16.4-.4 30.6 6.5 30.6 6.5l-39.2 11.4z" style="fill:#5cc55e"/><path id="path987" d="M188.642 127.782s-20.1 9.1-41 5.9c-8-1.2-22.2-15.1-28.4-12v33.1l74.1-.7z" style="fill:#47ac49"/><path id="path991" d="m201.142 154.782.1-29.5s-17.3-.3-25.4 7c-14.1 12.7-56.3 22.6-56.3 22.6z" style="fill:#3c943b"/></g><g id="g2078" style="stroke-width:.926743" transform="rotate(26.582 240.011 83.207) scale(1.07905)"><path id="rect4009" d="M151.967 121.535h91.48v51.135h-91.48z" class="cls-1" style="fill:#d4efff;stroke-width:.434763" transform="rotate(-18.93)"/><path id="rect4011" d="M151.967 172.67h91.48v8.913h-91.48z" class="cls-2" style="fill:#34495e;stroke-width:.434763" transform="rotate(-18.93)"/><path id="polygon4013" d="M112 171.45v-8.68l7.52 4.34z" class="cls-3" style="fill:#ecf0f1;stroke-width:.926743" transform="rotate(-18.93 243.742 -355.792) scale(.46913)"/><path id="rect4015" d="M160.411 175.954h79.283v2.346h-79.283z" class="cls-4" style="fill:#2c3e50;stroke-width:.434763" transform="rotate(-18.93)"/><path id="rect4017" d="M160.411 175.954h24.395v2.346h-24.395z" class="cls-3" style="fill:#ecf0f1;stroke-width:.434763" transform="rotate(-18.93)"/><circle id="circle4019" cx="163.568" cy="132.827" r="8.022" class="cls-5" style="fill:#2a80bb;stroke-width:.434763" transform="rotate(-18.93)"/><path id="polygon4021" d="M301 158.5H106v-13.34l44.46-37.34 22.21 18.67 17.56-14.73 53.64-45.11 45.85 38.8 11.28 9.84z" class="cls-6" style="fill:#3497da;stroke-width:.926743" transform="rotate(-18.93 243.742 -355.792) scale(.46913)"/><path id="path4042" d="m215.115 77.523-9.688 3.322a4.044 4.044 0 0 1-4.201-6.742l-.116-.337a4.818 4.818 0 0 1 8.175-4.708 2.346 2.346 0 0 1 1.29-1.053 2.416 2.416 0 0 1 3.064 1.499 2.374 2.374 0 0 1 .058 1.354 3.415 3.415 0 0 1 3.744 2.242 3.462 3.462 0 0 1-2.326 4.423z" class="cls-12" style="fill:#fff;stroke-width:.434763"/><path id="path4044" d="m210.97 78.944-9.7 3.327a4.044 4.044 0 0 1-4.19-6.746l-.115-.338a4.818 4.818 0 0 1 8.193-4.714 2.346 2.346 0 0 1 1.29-1.053 2.416 2.416 0 0 1 3.064 1.499 2.374 2.374 0 0 1 .058 1.354 3.415 3.415 0 0 1 3.744 2.242 3.462 3.462 0 0 1-2.344 4.43z" class="cls-12" style="opacity:.6;fill:#fff;stroke-width:.434763"/><path id="path4048" d="m206.958 80.32-9.682 3.321a4.044 4.044 0 0 1-4.202-6.742l-.116-.337a4.818 4.818 0 0 1 8.196-4.706 2.346 2.346 0 0 1 1.29-1.053 2.416 2.416 0 0 1 3.064 1.5 2.374 2.374 0 0 1 .058 1.353 3.415 3.415 0 0 1 3.744 2.242 3.462 3.462 0 0 1-2.352 4.422z" class="cls-12" style="opacity:.3;fill:#fff;stroke-width:.434763"/></g><g id="g2997" transform="rotate(-7.505 103.507 924.708)"><g id="g4473" style="stroke-width:2.24049" transform="translate(130.555 44.863) scale(.44633)"><path id="rect2716" d="M134 26.8h139.1v173.6H134z" class="st0" style="fill:#4a97da;stroke-width:2.24049"/><g id="g2720" style="opacity:.15;stroke-width:2.24049"><path id="rect2718" d="M151 44.5h113v146.1H151z" class="st2" style="fill:#231f20;stroke-width:2.24049"/></g><path id="rect2722" d="M147.1 40.5h113v146.1h-113z" class="st3" style="fill:#fff;stroke-width:2.24049"/><path id="path2726" d="M228.6 121.6h-32.3c-4.9 0-8.8-3.9-8.8-8.8s3.9-8.8 8.8-8.8h32.3c4.9 0 8.8 3.9 8.8 8.8s-3.9 8.8-8.8 8.8z" class="st0" style="fill:#4a97da;stroke-width:2.24049"/><path id="path2730" d="M197.3 157.7h-33.6c-1.9 0-3.4-1.5-3.4-3.4s1.5-3.4 3.4-3.4h33.6c1.9 0 3.4 1.5 3.4 3.4.1 1.9-1.5 3.4-3.4 3.4z" class="st4" style="opacity:1;fill:#b0afad;stroke-width:5.01977"/><path id="path2732" d="M232.2 74.9h7.5c1.9 0 3.4-1.5 3.4-3.4s-1.5-3.4-3.4-3.4h-7.5c-1.9 0-3.4 1.5-3.4 3.4-.1 1.8 1.5 3.4 3.4 3.4z" class="st4" style="opacity:1;fill:#b0afad;stroke-width:5.01977"/><path id="path2734" d="M197.3 95.7h-33.6c-1.9 0-3.4-1.5-3.4-3.4s1.5-3.4 3.4-3.4h33.6c1.9 0 3.4 1.5 3.4 3.4.1 1.9-1.5 3.4-3.4 3.4z" class="st4" style="opacity:1;fill:#b0afad;stroke-width:5.01977"/><path id="path2736" d="M243.5 95.7H210c-1.9 0-3.4-1.5-3.4-3.4s1.5-3.4 3.4-3.4h33.5c1.9 0 3.4 1.5 3.4 3.4s-1.5 3.4-3.4 3.4z" class="st4" style="opacity:1;fill:#b0afad;stroke-width:5.01977"/><path id="path2738" d="M178.8 116.2h-15.1c-1.9 0-3.4-1.5-3.4-3.4s1.5-3.4 3.4-3.4h15.1c1.9 0 3.4 1.5 3.4 3.4.1 1.9-1.5 3.4-3.4 3.4z" class="st4" style="opacity:1;fill:#b0afad;stroke-width:5.01977"/><path id="path2740" d="M214.7 137.1h-50.9c-1.9 0-3.4-1.5-3.4-3.4s1.5-3.4 3.4-3.4h50.9c1.9 0 3.4 1.5 3.4 3.4 0 1.8-1.6 3.4-3.4 3.4z" class="st4" style="opacity:1;fill:#b0afad;stroke-width:5.01977"/><path id="path2742" d="M215.1 80.3h-51.8c-4.9 0-8.8-3.9-8.8-8.8s3.9-8.8 8.8-8.8h51.8c4.9 0 8.8 3.9 8.8 8.8 0 4.8-4 8.8-8.8 8.8z" class="st0" style="fill:#4a97da;stroke-width:2.24049"/><path id="path2746" d="M212.9 73.5h-47.5c-1.1 0-2.1-.9-2.1-2.1 0-1.1.9-2.1 2.1-2.1h47.5c1.1 0 2.1.9 2.1 2.1 0 1.2-.9 2.1-2.1 2.1z" class="st3" style="fill:#fff;stroke-width:2.24049"/><path id="path2748" d="M226.8 114.9h-28.6c-1.1 0-2.1-.9-2.1-2.1 0-1.1.9-2.1 2.1-2.1h28.6c1.1 0 2.1.9 2.1 2.1 0 1.1-1 2.1-2.1 2.1z" class="st3" style="fill:#fff;stroke-width:2.24049"/></g></g></g><path id="path7054" fill="currentColor" d="M218.025 155.922q0 .614-.512 1.229l-16.335 16.335q-.564.461-1.178.461-.615 0-1.178-.46L182.436 157.1q-.769-.82-.359-1.793.41-1.024 1.536-1.024h9.832v-18.025q0-.717.461-1.178.461-.46 1.178-.46h9.832q.717 0 1.178.46.46.46.46 1.178v18.025h9.833q.717 0 1.177.461.461.46.461 1.178zM200 126.426q-7.579 0-13.98 3.738-6.4 3.738-10.14 10.14-3.737 6.4-3.737 13.98 0 7.578 3.738 13.979 3.738 6.4 10.14 10.14 6.4 3.737 13.979 3.737 7.579 0 13.98-3.738 6.4-3.738 10.139-10.14 3.738-6.4 3.738-13.979 0-7.579-3.738-13.98-3.738-6.4-10.14-10.139-6.4-3.738-13.979-3.738zm39.328 27.857q0 10.703-5.275 19.74-5.274 9.04-14.312 14.314-9.039 5.274-19.741 5.274-10.703 0-19.74-5.274-9.039-5.275-14.313-14.313-5.275-9.038-5.275-19.74 0-10.703 5.275-19.742 5.274-9.038 14.312-14.312 9.038-5.275 19.741-5.275t19.74 5.275q9.039 5.274 14.313 14.312 5.275 9.039 5.275 19.741z" style="fill:#a00;stroke-width:1"/></g></svg>