<?xml version="1.0" encoding="UTF-8" standalone="no"?>
<!-- Generator: Adobe Illustrator 20.1.0, SVG Export Plug-In . SVG Version: 6.00 Build 0)  -->

<svg
   version="1.1"
   id="Layer_1"
   x="0px"
   y="0px"
   viewBox="0 0 400 225"
   style="enable-background:new 0 0 400 225;"
   xml:space="preserve"
   sodipodi:docname="icon.svg"
   inkscape:version="1.2 (dc2aedaf03, 2022-05-15)"
   xmlns:inkscape="http://www.inkscape.org/namespaces/inkscape"
   xmlns:sodipodi="http://sodipodi.sourceforge.net/DTD/sodipodi-0.dtd"
   xmlns:xlink="http://www.w3.org/1999/xlink"
   xmlns="http://www.w3.org/2000/svg"
   xmlns:svg="http://www.w3.org/2000/svg"
   xmlns:rdf="http://www.w3.org/1999/02/22-rdf-syntax-ns#"
   xmlns:cc="http://creativecommons.org/ns#"
   xmlns:dc="http://purl.org/dc/elements/1.1/"><defs
   id="defs594">
	<defs
   id="defs532">
		<rect
   id="SVGID_1_"
   width="400"
   height="225" />
	</defs>
	<clipPath
   id="SVGID_2_">
		<use
   xlink:href="#SVGID_1_"
   style="overflow:visible;"
   id="use534" />
	</clipPath>
	
	
	
	
	
	
	
	
	

		
		
	<clipPath
   clipPathUnits="userSpaceOnUse"
   id="clipPath1271"><use
     xlink:href="#SVGID_1_"
     style="overflow:visible"
     id="use1273" /></clipPath><clipPath
   id="SVGID_2_-5">
		<use
   xlink:href="#SVGID_1_"
   style="overflow:visible;"
   id="use2022" />
	</clipPath><clipPath
   id="SVGID_2_-9">
		<use
   xlink:href="#SVGID_1_"
   style="overflow:visible"
   id="use2729" />
	</clipPath><clipPath
   clipPathUnits="userSpaceOnUse"
   id="clipPath2986"><use
     xlink:href="#SVGID_1_"
     style="overflow:visible"
     id="use2988" /></clipPath><clipPath
   id="SVGID_2_-7">
		<use
   xlink:href="#SVGID_1_"
   style="overflow:visible;"
   id="use534-8" />
	</clipPath><clipPath
   id="SVGID_2_-50">
		<use
   xlink:href="#SVGID_1_"
   style="overflow:visible;"
   id="use534-3" />
	</clipPath><clipPath
   clipPathUnits="userSpaceOnUse"
   id="clipPath5080"><use
     xlink:href="#SVGID_1_"
     style="overflow:visible"
     id="use5082" /></clipPath><clipPath
   clipPathUnits="userSpaceOnUse"
   id="clipPath5302"><use
     xlink:href="#SVGID_1_"
     style="overflow:visible"
     id="use5304" /></clipPath><clipPath
   clipPathUnits="userSpaceOnUse"
   id="clipPath5302-8"><use
     xlink:href="#SVGID_1_"
     style="overflow:visible"
     id="use5304-1" /></clipPath><clipPath
   clipPathUnits="userSpaceOnUse"
   id="clipPath4853"><use
     xlink:href="#SVGID_1_"
     style="overflow:visible"
     id="use4855" /></clipPath><clipPath
   clipPathUnits="userSpaceOnUse"
   id="clipPath5242"><use
     xlink:href="#SVGID_1_"
     style="overflow:visible"
     id="use5244" /></clipPath></defs><sodipodi:namedview
   id="namedview592"
   pagecolor="#ffffff"
   bordercolor="#666666"
   borderopacity="1.0"
   inkscape:showpageshadow="2"
   inkscape:pageopacity="0.0"
   inkscape:pagecheckerboard="0"
   inkscape:deskcolor="#d1d1d1"
   showgrid="false"
   inkscape:zoom="1.1251837"
   inkscape:cx="481.25476"
   inkscape:cy="245.29329"
   inkscape:window-width="1920"
   inkscape:window-height="1011"
   inkscape:window-x="0"
   inkscape:window-y="0"
   inkscape:window-maximized="1"
   inkscape:current-layer="g6891" />
<style
   type="text/css"
   id="style527">
	.st0{clip-path:url(#SVGID_2_);}
	.st1{fill:#F6C358;}
	.st2{opacity:0.5;clip-path:url(#SVGID_2_);}
	.st3{opacity:0.15;}
	.st4{fill:#231F20;}
	.st5{clip-path:url(#SVGID_2_);fill:#FFFFFF;}
	.st6{fill:#A4A4A5;}
	.st7{clip-path:url(#SVGID_2_);fill:#895836;}
</style>
<title
   id="title529">drag the words</title>

		
	
<g
   id="g6891"
   transform="translate(-365.93847,7.282405)"><path
     id="rect537-7"
     style="font-variation-settings:normal;opacity:1;vector-effect:none;fill:#2b69d6;fill-opacity:1;stroke-width:1;stroke-linecap:butt;stroke-linejoin:miter;stroke-miterlimit:4;stroke-dasharray:none;stroke-dashoffset:0;stroke-opacity:1;-inkscape-stroke:none;stop-color:#000000;stop-opacity:1"
     class="st1"
     d="m 484.01367,25.818359 c -5.19384,0 -9.375,4.183115 -9.375,9.376953 v 0.480469 1.308594 9.302734 0.07227 0.408203 1.308594 3.283203 6.091797 127.166014 h 34.59961 5.40039 100 5.40039 37.19922 V 51.359375 h -34.59961 -5.40039 -57.70117 v -3.283203 -1.308594 -0.408203 -0.07227 -9.302734 -1.308594 -0.480469 c 0,-5.193838 -4.18117,-9.376953 -9.375,-9.376953 z" /><rect
     class="cls-2"
     x="484.63818"
     y="61.358971"
     width="162.60001"
     height="113.258"
     id="rect369"
     style="font-variation-settings:normal;opacity:1;vector-effect:none;fill:#8fbaf7;fill-opacity:1;stroke:#b2b2bf;stroke-width:1;stroke-linecap:butt;stroke-linejoin:miter;stroke-miterlimit:4;stroke-dasharray:none;stroke-dashoffset:0;stroke-opacity:1;-inkscape-stroke:none;stop-color:#000000;stop-opacity:1" /><g
     id="g6835"><rect
       x="497.02811"
       y="128.21783"
       width="142.17"
       height="39.310001"
       id="rect371"
       style="opacity:0.15;mix-blend-mode:multiply;stroke-width:1.19637" /><rect
       class="cls-4"
       x="493.09811"
       y="124.28784"
       width="142.17"
       height="39.310001"
       id="rect375"
       style="fill:#ffffff;stroke-width:1.19637" /><path
       id="rect383"
       style="fill:#dddddd"
       class="cls-7"
       d="m 507.7099,140.26816 c -2.09412,0 -3.78125,1.68518 -3.78125,3.77929 0,2.09412 1.68713,3.78125 3.78125,3.78125 h 41.11523 31.08399 41.11523 c 2.09412,0 3.7793,-1.68713 3.7793,-3.78125 0,-2.09411 -1.68518,-3.77929 -3.7793,-3.77929 h -41.11523 -31.08399 z" /><path
       id="rect383-4"
       style="fill:#dddddd"
       class="cls-7"
       d="m 507.7099,150.86777 c -0.26177,0 -0.51713,0.026 -0.76368,0.0762 -0.60402,0.12297 -1.14471,0.40278 -1.60546,0.77539 -0.10341,0.0836 -0.21272,0.15997 -0.30664,0.2539 -0.34129,0.34131 -0.61791,0.74722 -0.8086,1.19922 -2.2e-4,5.4e-4 2.3e-4,0.001 0,0.002 -0.19043,0.45201 -0.29687,0.94978 -0.29687,1.47265 0,1.04706 0.42192,1.99224 1.10547,2.67578 0.1708,0.17081 0.35755,0.32535 0.55859,0.46094 4.2e-4,2.8e-4 0.002,-2.8e-4 0.002,0 0.20063,0.13519 0.41489,0.2525 0.64063,0.34766 0.45308,0.19131 0.95046,0.29687 1.47461,0.29687 h 41.11523 31.08399 41.11523 c 2.09412,0 3.7793,-1.68713 3.7793,-3.78125 0,-2.09411 -1.68518,-3.77929 -3.7793,-3.77929 h -41.11523 -31.08399 z" /><g
       id="g6825"><path
         id="rect379"
         style="fill:#6cd389"
         class="cls-5"
         d="m 503.38764,129.77792 c -2.09412,0 -3.7793,1.68518 -3.7793,3.7793 0,2.09412 1.68518,3.78125 3.7793,3.78125 h 41.98632 37.98438 41.98633 c 2.09412,0 3.77929,-1.68713 3.77929,-3.78125 0,-2.09412 -1.68517,-3.7793 -3.77929,-3.7793 h -41.98633 -37.98438 z" /><rect
         class="cls-6"
         x="503.12811"
         y="132.28784"
         width="112.00764"
         height="2.8"
         id="rect381"
         style="fill:#239630;stroke-width:1.2343" /><path
         class="cls-6"
         d="m 624.56812,132.50783 -2.62,2.62 -0.49,0.49 a 0.35,0.35 0 0 1 -0.49,0 l -0.49,-0.49 -1.31,-1.31 a 0.35,0.35 0 0 1 0,-0.49 l 0.49,-0.49 a 0.35,0.35 0 0 1 0.49,0 l 1.06,1.07 2.37,-2.37 a 0.35,0.35 0 0 1 0.49,0 l 0.49,0.49 a 0.35,0.35 0 0 1 0,0.49 z"
         id="path387"
         style="fill:#239630" /></g></g><g
     id="g6856"><rect
       x="496.59827"
       y="72.37812"
       width="142.17"
       height="44.16"
       id="rect411-2"
       style="opacity:0.15;mix-blend-mode:multiply;stroke-width:1.19781" /><rect
       class="cls-4"
       x="492.67825"
       y="68.448112"
       width="142.16983"
       height="44.16"
       id="rect415-9"
       style="fill:#ffffff;stroke-width:1.19781" /><g
       id="g6813"><polygon
         class="cls-8"
         points="160.21,128.91 160.21,94.44 226.03,94.44 225.73,128.91 "
         id="polygon433-6"
         style="font-variation-settings:normal;vector-effect:none;fill:#94e4ea;fill-opacity:1;stroke-width:1;stroke-linecap:butt;stroke-linejoin:miter;stroke-miterlimit:4;stroke-dasharray:none;stroke-dashoffset:0;stroke-opacity:1;-inkscape-stroke:none;stop-color:#000000"
         transform="translate(338.63826,-21.24189)" /><g
         id="g6801"
         transform="translate(-5.047787,-4.1547037)"><circle
           class="cls-4"
           cx="525.45825"
           cy="91.01812"
           r="6.1599998"
           id="circle435-2"
           style="font-variation-settings:normal;vector-effect:none;fill:#ffffff;fill-opacity:1;stroke-width:1;stroke-linecap:butt;stroke-linejoin:miter;stroke-miterlimit:4;stroke-dasharray:none;stroke-dashoffset:0;stroke-opacity:1;-inkscape-stroke:none;stop-color:#000000" /><circle
           class="st2"
           cx="299"
           cy="98.400002"
           r="29.700001"
           id="circle5996"
           style="opacity:0.38;fill:#ffffff"
           clip-path="url(#SVGID_2_)"
           transform="matrix(0.29710437,0,0,0.29710437,436.62405,61.783049)" /></g><polygon
         class="cls-9"
         points="192.06,120.46 180.03,109.5 168.74,120.35 161,110.99 161,127.91 161,128.5 175.74,128.5 183.71,128.5 198.97,128.5 225.53,128.5 204.83,107.61 "
         id="polygon437-6"
         style="font-variation-settings:normal;vector-effect:none;fill:#017c6b;fill-opacity:1;stroke-width:1;stroke-linecap:butt;stroke-linejoin:miter;stroke-miterlimit:4;stroke-dasharray:none;stroke-dashoffset:0;stroke-opacity:1;-inkscape-stroke:none;stop-color:#000000"
         transform="matrix(1.0168914,0,0,1.0168914,335.12875,-23.05957)" /><polygon
         points="181.96,128.79 184.53,128.79 192.12,120.7 190.85,119.55 "
         id="polygon439-8"
         transform="matrix(1.0012485,0,0,1.0012485,338.08411,-21.35535)"
         style="opacity:0.1" /><polygon
         points="160.26,126.55 160.21,128.91 168.27,120.36 167.35,119.3 "
         id="polygon443-9"
         transform="matrix(0.97526015,0,0,0.97526015,342.60184,-18.05268)"
         style="opacity:0.1" /><path
         class="st5"
         d="m 268.6,144 c 0,0 13.8,-6 33.5,-6.5 16.4,-0.4 30.6,6.5 30.6,6.5 l -39.2,11.4 z"
         id="path6020"
         style="fill:#5cc55e"
         clip-path="url(#SVGID_2_)"
         transform="matrix(0.63486781,0,0,0.47243048,332.46994,34.25241)" /><path
         class="st6"
         d="m 539.50402,102.67057 c 0,0 -11.77494,1.68436 -24.01853,1.09206 -4.68653,-0.22212 -13.00514,-2.79493 -16.63722,-2.22113 v 6.12661 l 43.40909,-0.12957 z"
         id="path6024"
         style="fill:#47ac49;stroke-width:0.329289" /><path
         class="st7"
         d="m 337.3,169.6 0.1,-29.5 c 0,0 -17.3,-0.3 -25.4,7 -14.1,12.7 -56.3,22.6 -56.3,22.6 z"
         id="path6028"
         style="fill:#3c943b"
         clip-path="url(#SVGID_2_)"
         transform="matrix(0.69977524,0,0,0.32717926,328.25295,52.14579)" /></g><g
       id="g6820"><rect
         x="176.39999"
         y="66.400002"
         class="st5"
         width="104"
         height="60.099998"
         clip-path="url(#SVGID_2_)"
         id="rect2758"
         style="fill:#e5e5e5;fill-opacity:1"
         transform="matrix(0.57354411,0,0,0.57354411,468.23822,35.11478)" /><polygon
         class="st6"
         points="188.3,77.8 188.3,82 254.7,82 254.7,77.8 "
         id="polygon2762"
         clip-path="url(#clipPath2986)"
         style="fill:#a4a4a5"
         transform="matrix(0.57354411,0,0,0.57354411,468.23822,35.11478)" /><rect
         x="576.23657"
         y="84.267509"
         class="st6"
         width="10.782629"
         height="2.5235941"
         id="rect2764"
         style="fill:#a4a4a5;stroke-width:0.573544" /><rect
         x="576.23657"
         y="93.10009"
         class="st6"
         width="31.889051"
         height="2.5809486"
         id="rect2766"
         style="fill:#a4a4a5;stroke-width:0.573544" /><rect
         x="576.23657"
         y="97.917854"
         class="st6"
         width="19.156374"
         height="2.6383028"
         id="rect2768"
         style="fill:#a4a4a5;stroke-width:0.573544" /></g></g><path
     id="rect3356-6-1"
     style="font-variation-settings:normal;opacity:1;vector-effect:none;fill:#353584;fill-opacity:1;stroke-width:1;stroke-linecap:butt;stroke-linejoin:miter;stroke-miterlimit:4;stroke-dasharray:none;stroke-dashoffset:0;stroke-opacity:1;-inkscape-stroke:none;paint-order:stroke fill markers;stop-color:#000000;stop-opacity:1"
     d="m 588.084,25.818 c 5.19385,0 9.375,4.18311 9.375,9.37695 v 0.48047 1.3086 9.375 h 15.79688 9.375 v -9.375 -1.3086 -0.48047 c 0,-5.19384 -4.18116,-9.37695 -9.375,-9.37695 z" /><path
     id="rect3356-6-1-4"
     style="font-variation-settings:normal;opacity:1;vector-effect:none;fill:#353584;fill-opacity:1;stroke-width:1;stroke-linecap:butt;stroke-linejoin:miter;stroke-miterlimit:4;stroke-dasharray:none;stroke-dashoffset:0;stroke-opacity:1;-inkscape-stroke:none;paint-order:stroke fill markers;stop-color:#000000;stop-opacity:1"
     d="m 556.537,25.818 c 5.19385,0 9.375,4.18311 9.375,9.37695 v 0.48047 1.3086 9.375 h 15.79688 9.375 v -9.375 -1.3086 -0.48047 c 0,-5.19384 -4.18116,-9.37695 -9.375,-9.37695 z" /></g><metadata
   id="metadata7103"><rdf:RDF><cc:Work
       rdf:about=""><dc:title>drag the words</dc:title></cc:Work></rdf:RDF></metadata></svg>
