<svg version="1.1" id="Layer_1" x="0" y="0" viewBox="0 0 400 225" style="enable-background:new 0 0 400 225" xml:space="preserve" xmlns:xlink="http://www.w3.org/1999/xlink" xmlns="http://www.w3.org/2000/svg"><defs id="defs89"><clipPath id="SVGID_2_-5"><use xlink:href="#SVGID_1_-4" style="overflow:visible" id="use17-0" x="0" y="0" width="100%" height="100%"/></clipPath><clipPath id="SVGID_4_"><use xlink:href="#SVGID_3_" style="overflow:visible" id="use47" x="0" y="0" width="100%" height="100%"/></clipPath><clipPath id="SVGID_2_"><use xlink:href="#SVGID_1_" style="overflow:visible" id="use17" x="0" y="0" width="100%" height="100%"/></clipPath><clipPath id="clipPath945"><use xlink:href="#SVGID_3_-7" style="overflow:visible" id="use943" x="0" y="0" width="100%" height="100%"/></clipPath><clipPath id="SVGID_2_-3"><use xlink:href="#SVGID_1_" style="overflow:visible" id="use17-8" x="0" y="0" width="100%" height="100%"/></clipPath><clipPath id="SVGID_4_-8"><use xlink:href="#SVGID_3_" style="overflow:visible" id="use47-3" x="0" y="0" width="100%" height="100%"/></clipPath><clipPath id="clipPath927"><use xlink:href="#SVGID_1_-4" style="overflow:visible" id="use925" x="0" y="0" width="100%" height="100%"/></clipPath><clipPath id="SVGID_4_-9"><use xlink:href="#SVGID_3_-7" style="overflow:visible" id="use47-6" x="0" y="0" width="100%" height="100%"/></clipPath><path id="rect1150" d="M204 49.5h85v128h-85z"/><path id="rect1133" d="M117 49.5h87v128h-87z"/><path id="SVGID_3_-7" d="M204 49.5h85v128h-85z"/><path id="SVGID_1_-4" d="M117 49.5h87v128h-87z"/><defs id="defs45-1"><path id="rect1611" d="M204 49.5h85v128h-85z"/></defs><defs id="defs15"><path id="SVGID_1_" d="M117 49.5h87v128h-87z"/></defs><defs id="defs45"><path id="SVGID_3_" d="M204 49.5h85v128h-85z"/></defs><defs id="defs15-8"><path id="rect1594" d="M117 49.5h87v128h-87z"/></defs></defs><style type="text/css" id="style2">.st10{fill:#d3eeff}.st11{fill:#fac361}.st12{fill:#51bc86}</style><g id="g9673" transform="translate(19.85 -251.342)"><path id="rect4" style="fill:none" d="M-19.85 251.342h400v225h-400z"/><path id="rect6-1" style="fill:#f0f1f6" d="M82.4 288.792H278v150.2H82.4z"/><path class="st10" id="rect52-2" d="M94.2 300.392h174v129h-174z"/><path class="st12" id="polygon60-5" transform="translate(-22.8 251.492)" d="m156.6 126.1 24.6 23.2L241.7 92l49.3 39.1v46.7l-174 .1v-11.6z"/><path d="M278.6 439.592H81.7v-151.5h196.9zm-195.6-1.3h194.3v-148.9H83z" id="path8-1" style="fill:#e2e3e8"/><ellipse transform="rotate(-68.458)" class="st11" cx="-262.586" cy="242.524" rx="14.601" ry="14.701" id="ellipse58-8" style="stroke-width:1.00005"/><path id="polygon60-5-0" style="font-variation-settings:normal;opacity:.2;vector-effect:none;fill:#000;fill-opacity:1;stroke-width:1;stroke-linecap:butt;stroke-linejoin:miter;stroke-miterlimit:4;stroke-dasharray:none;stroke-dashoffset:0;stroke-opacity:1;-inkscape-stroke:none;stop-color:#000" class="st12" d="M155.158 397.733c-.113.108-24.332 23.338-32.721 31.643l6.846-.004 29.117-28.58z"/><path id="rect52-2-0" style="fill:#ecf8ff;fill-opacity:1" class="st10" d="M146.2 329.654c-11.118 0-20.185 8.98-20.185 20.185 0 11.205 8.981 20.358 20.186 20.358 11.29 0 20.443-9.153 20.443-20.444 0-11.119-9.153-20.185-20.443-20.1z"/><path id="ellipse58-8-5-9-2" style="fill:#facc79;fill-opacity:1;stroke-width:2.04268" class="st11" d="M146.2 329.654c-11.118 0-20.185 8.98-20.185 20.185 0 4.092 1.202 7.907 3.268 11.106a30.027 29.823 21.542 0 0 26.789-18.723 30.027 29.823 21.542 0 0 1.99-8.877 20.296 20.296 0 0 0-11.861-3.691z"/><path d="M150.151 323.019c-14.626 0-26.686 12.06-26.686 26.686 0 14.797 11.975 26.772 26.686 26.772 5.475 0 10.521-1.71 14.798-4.448l26.515 26.515c2.053 2.053 5.388 2.053 7.527 0 2.052-2.138 2.052-5.474 0-7.527-.342-.256-26.516-26.515-26.516-26.515 2.738-4.276 4.448-9.323 4.448-14.797.086-14.626-11.889-26.686-26.772-26.686zm0 47.128c-11.204 0-20.185-9.152-20.185-20.356 0-11.205 9.066-20.186 20.185-20.186 11.29-.086 20.443 8.98 20.443 20.1 0 11.29-9.152 20.442-20.443 20.442z" id="path5992-4-4-2-4" style="fill:#000;fill-opacity:.2;stroke:none;stroke-width:.855328;stroke-opacity:0"/><path d="M146.151 323.019c-14.626 0-26.686 12.06-26.686 26.686 0 14.797 11.975 26.772 26.686 26.772 5.475 0 10.521-1.71 14.798-4.448l26.515 26.515c2.053 2.053 5.388 2.053 7.527 0 2.052-2.138 2.052-5.474 0-7.527-.342-.256-26.516-26.515-26.516-26.515 2.738-4.276 4.448-9.323 4.448-14.797.086-14.626-11.889-26.686-26.772-26.686zm0 47.128c-11.204 0-20.185-9.152-20.185-20.356 0-11.205 9.066-20.186 20.185-20.186 11.29-.086 20.443 8.98 20.443 20.1 0 11.29-9.152 20.442-20.443 20.442z" id="path5992-4-4-2" style="fill:#472809;fill-opacity:1;stroke:#472809;stroke-width:.855328;stroke-opacity:1"/></g></svg>