<svg xmlns="http://www.w3.org/2000/svg" xmlns:xlink="http://www.w3.org/1999/xlink" xml:space="preserve" id="Layer_1" x="0" y="0" style="enable-background:new 0 0 400 225" version="1.1" viewBox="0 0 400 225"><defs id="defs764"><clipPath id="clipPath1130" clipPathUnits="userSpaceOnUse"><use xlink:href="#SVGID_1_" id="use1132" style="overflow:visible"/></clipPath><clipPath id="clipPath1134" clipPathUnits="userSpaceOnUse"><use xlink:href="#SVGID_1_" id="use1136" style="overflow:visible"/></clipPath><clipPath id="clipPath1138" clipPathUnits="userSpaceOnUse"><use xlink:href="#SVGID_1_" id="use1140" style="overflow:visible"/></clipPath><clipPath id="clipPath1166" clipPathUnits="userSpaceOnUse"><use xlink:href="#SVGID_1_" id="use1168" style="overflow:visible"/></clipPath><clipPath id="clipPath1170" clipPathUnits="userSpaceOnUse"><use xlink:href="#SVGID_1_" id="use1172" style="overflow:visible"/></clipPath><clipPath id="clipPath1174" clipPathUnits="userSpaceOnUse"><use xlink:href="#SVGID_1_" id="use1176" style="overflow:visible"/></clipPath><clipPath id="clipPath1178" clipPathUnits="userSpaceOnUse"><use xlink:href="#SVGID_1_" id="use1180" style="overflow:visible"/></clipPath><clipPath id="clipPath1182" clipPathUnits="userSpaceOnUse"><use xlink:href="#SVGID_1_" id="use1184" style="overflow:visible"/></clipPath><clipPath id="clipPath1220" clipPathUnits="userSpaceOnUse"><use xlink:href="#SVGID_1_" id="use1222" style="overflow:visible"/></clipPath><clipPath id="clipPath1224" clipPathUnits="userSpaceOnUse"><use xlink:href="#SVGID_1_" id="use1226" style="overflow:visible"/></clipPath><clipPath id="clipPath1228" clipPathUnits="userSpaceOnUse"><use xlink:href="#SVGID_1_" id="use1230" style="overflow:visible"/></clipPath><clipPath id="clipPath1232" clipPathUnits="userSpaceOnUse"><use xlink:href="#SVGID_1_" id="use1234" style="overflow:visible"/></clipPath><clipPath id="clipPath1236" clipPathUnits="userSpaceOnUse"><use xlink:href="#SVGID_1_" id="use1238" style="overflow:visible"/></clipPath><clipPath id="clipPath1240" clipPathUnits="userSpaceOnUse"><use xlink:href="#SVGID_1_" id="use1242" style="overflow:visible"/></clipPath><clipPath id="clipPath1244" clipPathUnits="userSpaceOnUse"><use xlink:href="#SVGID_1_" id="use1246" style="overflow:visible"/></clipPath><clipPath id="clipPath1248" clipPathUnits="userSpaceOnUse"><use xlink:href="#SVGID_1_" id="use1250" style="overflow:visible"/></clipPath><clipPath id="clipPath1252" clipPathUnits="userSpaceOnUse"><use xlink:href="#SVGID_1_" id="use1254" style="overflow:visible"/></clipPath><clipPath id="clipPath1256" clipPathUnits="userSpaceOnUse"><use xlink:href="#SVGID_1_" id="use1258" style="overflow:visible"/></clipPath><clipPath id="clipPath1260" clipPathUnits="userSpaceOnUse"><use xlink:href="#SVGID_1_" id="use1262" style="overflow:visible"/></clipPath><clipPath id="clipPath1264" clipPathUnits="userSpaceOnUse"><use xlink:href="#SVGID_1_" id="use1266" style="overflow:visible"/></clipPath><clipPath id="clipPath1268" clipPathUnits="userSpaceOnUse"><use xlink:href="#SVGID_1_" id="use1270" style="overflow:visible"/></clipPath><clipPath id="clipPath1272" clipPathUnits="userSpaceOnUse"><use xlink:href="#SVGID_1_" id="use1274" style="overflow:visible"/></clipPath><clipPath id="clipPath1276" clipPathUnits="userSpaceOnUse"><use xlink:href="#SVGID_1_" id="use1278" style="overflow:visible"/></clipPath><clipPath id="clipPath1280" clipPathUnits="userSpaceOnUse"><use xlink:href="#SVGID_1_" id="use1282" style="overflow:visible"/></clipPath><clipPath id="clipPath1284" clipPathUnits="userSpaceOnUse"><use xlink:href="#SVGID_1_" id="use1286" style="overflow:visible"/></clipPath><clipPath id="clipPath1288" clipPathUnits="userSpaceOnUse"><use xlink:href="#SVGID_1_" id="use1290" style="overflow:visible"/></clipPath><clipPath id="clipPath1292" clipPathUnits="userSpaceOnUse"><use xlink:href="#SVGID_1_" id="use1294" style="overflow:visible"/></clipPath><clipPath id="clipPath1296" clipPathUnits="userSpaceOnUse"><use xlink:href="#SVGID_1_" id="use1298" style="overflow:visible"/></clipPath><clipPath id="clipPath1300" clipPathUnits="userSpaceOnUse"><use xlink:href="#SVGID_1_" id="use1302" style="overflow:visible"/></clipPath><clipPath id="clipPath1304" clipPathUnits="userSpaceOnUse"><use xlink:href="#SVGID_1_" id="use1306" style="overflow:visible"/></clipPath><clipPath id="clipPath1308" clipPathUnits="userSpaceOnUse"><use xlink:href="#SVGID_1_" id="use1310" style="overflow:visible"/></clipPath><clipPath id="clipPath1312" clipPathUnits="userSpaceOnUse"><use xlink:href="#SVGID_1_" id="use1314" style="overflow:visible"/></clipPath><clipPath id="clipPath1316" clipPathUnits="userSpaceOnUse"><use xlink:href="#SVGID_1_" id="use1318" style="overflow:visible"/></clipPath><clipPath id="clipPath1346" clipPathUnits="userSpaceOnUse"><use xlink:href="#SVGID_1_" id="use1348" style="overflow:visible"/></clipPath><clipPath id="clipPath1350" clipPathUnits="userSpaceOnUse"><use xlink:href="#SVGID_1_" id="use1352" style="overflow:visible"/></clipPath><clipPath id="clipPath1354" clipPathUnits="userSpaceOnUse"><use xlink:href="#SVGID_1_" id="use1356" style="overflow:visible"/></clipPath><clipPath id="clipPath1358" clipPathUnits="userSpaceOnUse"><use xlink:href="#SVGID_1_" id="use1360" style="overflow:visible"/></clipPath><clipPath id="clipPath1362" clipPathUnits="userSpaceOnUse"><use xlink:href="#SVGID_1_" id="use1364" style="overflow:visible"/></clipPath><clipPath id="clipPath1366" clipPathUnits="userSpaceOnUse"><use xlink:href="#SVGID_1_" id="use1368" style="overflow:visible"/></clipPath><clipPath id="clipPath1370" clipPathUnits="userSpaceOnUse"><use xlink:href="#SVGID_1_" id="use1372" style="overflow:visible"/></clipPath><clipPath id="clipPath1374" clipPathUnits="userSpaceOnUse"><use xlink:href="#SVGID_1_" id="use1376" style="overflow:visible"/></clipPath><clipPath id="clipPath1378" clipPathUnits="userSpaceOnUse"><use xlink:href="#SVGID_1_" id="use1380" style="overflow:visible"/></clipPath><clipPath id="clipPath1382" clipPathUnits="userSpaceOnUse"><use xlink:href="#SVGID_1_" id="use1384" style="overflow:visible"/></clipPath><clipPath id="clipPath1386" clipPathUnits="userSpaceOnUse"><use xlink:href="#SVGID_1_" id="use1388" style="overflow:visible"/></clipPath><clipPath id="clipPath1390" clipPathUnits="userSpaceOnUse"><use xlink:href="#SVGID_1_" id="use1392" style="overflow:visible"/></clipPath><clipPath id="clipPath1394" clipPathUnits="userSpaceOnUse"><use xlink:href="#SVGID_1_" id="use1396" style="overflow:visible"/></clipPath><clipPath id="clipPath1398" clipPathUnits="userSpaceOnUse"><use xlink:href="#SVGID_1_" id="use1400" style="overflow:visible"/></clipPath><clipPath id="clipPath1402" clipPathUnits="userSpaceOnUse"><use xlink:href="#SVGID_1_" id="use1404" style="overflow:visible"/></clipPath><clipPath id="clipPath1435" clipPathUnits="userSpaceOnUse"><use xlink:href="#SVGID_1_" id="use1437" style="overflow:visible"/></clipPath><clipPath id="clipPath1439" clipPathUnits="userSpaceOnUse"><use xlink:href="#SVGID_1_" id="use1441" style="overflow:visible"/></clipPath><clipPath id="clipPath1443" clipPathUnits="userSpaceOnUse"><use xlink:href="#SVGID_1_" id="use1445" style="overflow:visible"/></clipPath><clipPath id="clipPath1447" clipPathUnits="userSpaceOnUse"><use xlink:href="#SVGID_1_" id="use1449" style="overflow:visible"/></clipPath><clipPath id="clipPath1451" clipPathUnits="userSpaceOnUse"><use xlink:href="#SVGID_1_" id="use1453" style="overflow:visible"/></clipPath><clipPath id="clipPath1455" clipPathUnits="userSpaceOnUse"><use xlink:href="#SVGID_1_" id="use1457" style="overflow:visible"/></clipPath><clipPath id="clipPath1459" clipPathUnits="userSpaceOnUse"><use xlink:href="#SVGID_1_" id="use1461" style="overflow:visible"/></clipPath><clipPath id="clipPath1463" clipPathUnits="userSpaceOnUse"><use xlink:href="#SVGID_1_" id="use1465" style="overflow:visible"/></clipPath><clipPath id="clipPath1467" clipPathUnits="userSpaceOnUse"><use xlink:href="#SVGID_1_" id="use1469" style="overflow:visible"/></clipPath><clipPath id="clipPath1471" clipPathUnits="userSpaceOnUse"><use xlink:href="#SVGID_1_" id="use1473" style="overflow:visible"/></clipPath><clipPath id="clipPath1475" clipPathUnits="userSpaceOnUse"><use xlink:href="#SVGID_1_" id="use1477" style="overflow:visible"/></clipPath><clipPath id="clipPath1479" clipPathUnits="userSpaceOnUse"><use xlink:href="#SVGID_1_" id="use1481" style="overflow:visible"/></clipPath><clipPath id="clipPath1483" clipPathUnits="userSpaceOnUse"><use xlink:href="#SVGID_1_" id="use1485" style="overflow:visible"/></clipPath><clipPath id="clipPath1487" clipPathUnits="userSpaceOnUse"><use xlink:href="#SVGID_1_" id="use1489" style="overflow:visible"/></clipPath><clipPath id="clipPath1491" clipPathUnits="userSpaceOnUse"><use xlink:href="#SVGID_1_" id="use1493" style="overflow:visible"/></clipPath><clipPath id="clipPath1495" clipPathUnits="userSpaceOnUse"><use xlink:href="#SVGID_1_" id="use1497" style="overflow:visible"/></clipPath><clipPath id="clipPath1499" clipPathUnits="userSpaceOnUse"><use xlink:href="#SVGID_1_" id="use1501" style="overflow:visible"/></clipPath><clipPath id="clipPath1503" clipPathUnits="userSpaceOnUse"><use xlink:href="#SVGID_1_" id="use1505" style="overflow:visible"/></clipPath><clipPath id="clipPath1507" clipPathUnits="userSpaceOnUse"><use xlink:href="#SVGID_1_" id="use1509" style="overflow:visible"/></clipPath><clipPath id="clipPath1511" clipPathUnits="userSpaceOnUse"><use xlink:href="#SVGID_1_" id="use1513" style="overflow:visible"/></clipPath><clipPath id="clipPath1515" clipPathUnits="userSpaceOnUse"><use xlink:href="#SVGID_1_" id="use1517" style="overflow:visible"/></clipPath><clipPath id="clipPath1519" clipPathUnits="userSpaceOnUse"><use xlink:href="#SVGID_1_" id="use1521" style="overflow:visible"/></clipPath><clipPath id="clipPath1182-3" clipPathUnits="userSpaceOnUse"><use xlink:href="#SVGID_1_" id="use1184-6" style="overflow:visible"/></clipPath><clipPath id="clipPath1182-3-5" clipPathUnits="userSpaceOnUse"><use xlink:href="#SVGID_1_" id="use1184-6-3" style="overflow:visible"/></clipPath><clipPath id="clipPath1130-6" clipPathUnits="userSpaceOnUse"><use xlink:href="#SVGID_1_" id="use1132-2" style="overflow:visible"/></clipPath><clipPath id="clipPath1166-6" clipPathUnits="userSpaceOnUse"><use xlink:href="#SVGID_1_" id="use1168-0" style="overflow:visible"/></clipPath><clipPath id="clipPath1166-6-6" clipPathUnits="userSpaceOnUse"><use xlink:href="#SVGID_1_" id="use1168-0-1" style="overflow:visible"/></clipPath><clipPath id="clipPath1170-7" clipPathUnits="userSpaceOnUse"><use xlink:href="#SVGID_1_" id="use1172-9" style="overflow:visible"/></clipPath><clipPath id="clipPath1170-7-2" clipPathUnits="userSpaceOnUse"><use xlink:href="#SVGID_1_" id="use1172-9-3" style="overflow:visible"/></clipPath><defs id="defs544"><path id="SVGID_1_" d="M0 0h400v225H0z"/></defs></defs><style id="style540" type="text/css">.st0{clip-path:url(#SVGID_2_)}.st1{fill:#6ed62b}.st2{opacity:.22;fill:#383844;enable-background:new}.st3{fill:#997234}.st4{fill:#fff}.st5{fill:#353584}.st6{fill:#b2b2bf}.st7{fill:#272733}.st8{fill:#84602c}.st9{fill:none}.st10{fill:#41414c}.st11{fill:#2b69d6}.st12{fill:#2c2c33}.st13{fill:#eabe78}.st14{fill:#d8d82a}.st15{fill:#d8ad6f}.st16{fill:#ffca08}.st17{fill:#f7e9a5}.st18{fill:#edbc07}.st19{fill:#db8c0e}.st20{fill:#fea401}.st21{fill:#d62b99}.st22{fill:#ce9d45}.st23{fill:#7c520e}.st24{fill:#bc8c3f}.st25{fill:#5e3c0b}.st26{fill:#b2b2bf;stroke:#b2b2bf;stroke-miterlimit:10}</style><g id="g7" style="stroke-width:.702781" transform="matrix(1.42292 0 0 1.42292 -315.12 201.194)"><g id="g6" style="stroke-width:.702781"><path id="path1-5" fill="currentColor" d="M402.83-82.713q-3.155 4.837-7.203 14.353-1.157-2.366-1.945-3.812-.789-1.445-2.13-3.338-1.34-1.893-2.68-2.97-1.341-1.078-3.313-1.84-1.971-.763-4.284-.763h-11.777q-.736 0-1.209-.473-.473-.473-.473-1.21v-10.093q0-.736.473-1.21.473-.472 1.21-.472h11.776q13.143 0 21.555 11.828zm59.197 42.006q0 .736-.474 1.21L444.73-22.675q-.473.473-1.21.473-.683 0-1.182-.5-.5-.5-.5-1.183v-10.094q-1.682 0-4.468.027-2.787.026-4.259.052-1.472.027-3.837-.052-2.366-.079-3.733-.263t-3.365-.552q-1.997-.368-3.312-.973-1.314-.604-3.049-1.498-1.735-.894-3.102-2.103-1.367-1.21-2.891-2.813-1.525-1.603-2.944-3.653 3.101-4.89 7.15-14.353 1.156 2.366 1.945 3.812.788 1.445 2.129 3.338 1.34 1.893 2.681 2.97 1.34 1.078 3.312 1.84 1.972.763 4.285.763h13.459V-57.53q0-.736.473-1.21.473-.472 1.209-.472.63 0 1.262.525l16.77 16.771q.474.473.474 1.21zm0-47.105q0 .736-.474 1.21L444.73-69.78q-.473.474-1.21.474-.683 0-1.182-.5-.5-.5-.5-1.183v-10.094H428.38q-2.524 0-4.574.789-2.05.788-3.627 2.366-1.578 1.577-2.682 3.233-1.104 1.656-2.365 4.074-1.683 3.26-4.101 8.99-1.525 3.47-2.602 5.836-1.078 2.366-2.84 5.52-1.76 3.154-3.364 5.257-1.604 2.103-3.89 4.364-2.287 2.26-4.732 3.6-2.445 1.342-5.599 2.209-3.154.867-6.73.867h-11.776q-.736 0-1.209-.473-.473-.473-.473-1.209v-10.094q0-.736.473-1.209.473-.473 1.21-.473h11.776q2.523 0 4.573-.789 2.05-.788 3.628-2.366 1.577-1.577 2.681-3.233 1.104-1.656 2.366-4.074 1.682-3.26 4.1-8.99 1.525-3.47 2.603-5.836 1.078-2.366 2.839-5.52 1.761-3.154 3.365-5.257 1.603-2.103 3.89-4.364 2.287-2.26 4.732-3.6 2.444-1.342 5.599-2.209 3.154-.867 6.729-.867h13.459v-10.094q0-.736.473-1.21.473-.473 1.209-.473.63 0 1.262.526l16.77 16.77q.474.474.474 1.21z" style="font-variation-settings:normal;opacity:1;vector-effect:none;fill:#2587cb;fill-opacity:1;stroke-width:.702781;stroke-linecap:butt;stroke-linejoin:miter;stroke-miterlimit:4;stroke-dasharray:none;stroke-dashoffset:0;stroke-opacity:1;-inkscape-stroke:none;stop-color:#000;stop-opacity:1"/><path id="path1" fill="currentColor" d="M400.83-84.713q-3.155 4.837-7.203 14.353-1.157-2.366-1.945-3.812-.789-1.445-2.13-3.338-1.34-1.893-2.68-2.97-1.341-1.078-3.313-1.84-1.971-.763-4.284-.763h-11.777q-.736 0-1.209-.473-.473-.473-.473-1.21v-10.093q0-.736.473-1.21.473-.472 1.21-.472h11.776q13.143 0 21.555 11.828zm59.197 42.006q0 .736-.474 1.21L442.73-24.675q-.473.473-1.21.473-.683 0-1.182-.5-.5-.5-.5-1.183v-10.094q-1.682 0-4.468.027-2.787.026-4.259.052-1.472.027-3.837-.052-2.366-.079-3.733-.263t-3.365-.552q-1.997-.368-3.312-.973-1.314-.604-3.049-1.498-1.735-.894-3.102-2.103-1.367-1.21-2.891-2.813-1.525-1.603-2.944-3.653 3.101-4.89 7.15-14.353 1.156 2.366 1.945 3.812.788 1.445 2.129 3.338 1.34 1.893 2.681 2.97 1.34 1.078 3.312 1.84 1.972.763 4.285.763h13.459V-59.53q0-.736.473-1.21.473-.472 1.209-.472.63 0 1.262.525l16.77 16.771q.474.473.474 1.21zm0-47.105q0 .736-.474 1.21L442.73-71.78q-.473.474-1.21.474-.683 0-1.182-.5-.5-.5-.5-1.183v-10.094H426.38q-2.524 0-4.574.789-2.05.788-3.627 2.366-1.578 1.577-2.682 3.233-1.104 1.656-2.365 4.074-1.683 3.26-4.101 8.99-1.525 3.47-2.602 5.836-1.078 2.366-2.84 5.52-1.76 3.154-3.364 5.257-1.604 2.103-3.89 4.364-2.287 2.26-4.732 3.6-2.445 1.342-5.599 2.209-3.154.867-6.73.867h-11.776q-.736 0-1.209-.473-.473-.473-.473-1.209v-10.094q0-.736.473-1.209.473-.473 1.21-.473h11.776q2.523 0 4.573-.789 2.05-.788 3.628-2.366 1.577-1.577 2.681-3.233 1.104-1.656 2.366-4.074 1.682-3.26 4.1-8.99 1.525-3.47 2.603-5.836 1.078-2.366 2.839-5.52 1.761-3.154 3.365-5.257 1.603-2.103 3.89-4.364 2.287-2.26 4.732-3.6 2.444-1.342 5.599-2.209 3.154-.867 6.729-.867h13.459v-10.094q0-.736.473-1.21.473-.473 1.209-.473.63 0 1.262.526l16.77 16.77q.474.474.474 1.21z" style="font-variation-settings:normal;opacity:1;vector-effect:none;fill:#3396da;fill-opacity:1;stroke-width:.702781;stroke-linecap:butt;stroke-linejoin:miter;stroke-miterlimit:4;stroke-dasharray:none;stroke-dashoffset:0;stroke-opacity:1;-inkscape-stroke:none;stop-color:#000;stop-opacity:1"/></g><g id="g5" style="stroke-width:.702781" transform="translate(0 2.408)"><g id="g3" style="stroke-width:.702781" transform="translate(75.178 15.256)"><rect id="rect2-7-5" width="90" height="50" x="191.531" y="-143.603" ry="6.639" style="font-variation-settings:normal;vector-effect:none;fill:#e9b700;fill-opacity:1;stroke:none;stroke-width:1.11454;stroke-linecap:butt;stroke-linejoin:miter;stroke-miterlimit:4;stroke-dasharray:none;stroke-dashoffset:0;stroke-opacity:1;-inkscape-stroke:none;paint-order:stroke fill markers"/><rect id="rect2" width="90" height="50" x="189.531" y="-145.603" ry="6.639" style="font-variation-settings:normal;opacity:1;vector-effect:none;fill:#ffca08;fill-opacity:1;stroke:none;stroke-width:1.11454;stroke-linecap:butt;stroke-linejoin:miter;stroke-miterlimit:4;stroke-dasharray:none;stroke-dashoffset:0;stroke-opacity:1;-inkscape-stroke:none;paint-order:stroke fill markers"/><path id="text2" d="m215.781-100.603 14.89-40h7.638l14.972 40h-8.791l-2.747-8.241h-14.478l-2.748 8.241zm13.709-14.917h10.027l-5-15.028z" aria-label="A" style="font-weight:700;font-size:64px;line-height:1.25;-inkscape-font-specification:&quot;sans-serif Bold&quot;;stroke-width:.702781"/></g><g id="g4" style="stroke-width:.702781" transform="translate(44.5 13.225)"><rect id="rect2-7-5-7" width="90" height="50" x="222.209" y="-68.212" ry="6.639" style="font-variation-settings:normal;vector-effect:none;fill:#e9b700;fill-opacity:1;stroke:none;stroke-width:1.11454;stroke-linecap:butt;stroke-linejoin:miter;stroke-miterlimit:4;stroke-dasharray:none;stroke-dashoffset:0;stroke-opacity:1;-inkscape-stroke:none;paint-order:stroke fill markers"/><rect id="rect2-4" width="90" height="50" x="220.209" y="-70.212" ry="6.639" style="font-variation-settings:normal;vector-effect:none;fill:#ffca08;fill-opacity:1;stroke:none;stroke-width:1.11454;stroke-linecap:butt;stroke-linejoin:miter;stroke-miterlimit:4;stroke-dasharray:none;stroke-dashoffset:0;stroke-opacity:1;-inkscape-stroke:none;paint-order:stroke fill markers"/><path id="text3" d="M280.071-36.998q0 5.77-3.68 8.764-3.682 2.967-10.495 3.022h-15.55v-40h14.039q6.95 0 10.879 2.665 3.928 2.665 3.928 8.27 0 2.719-1.373 5-1.374 2.28-4.341 3.46 3.517.88 5.055 3.407 1.538 2.528 1.538 5.412zm-21.456-21.538v10.055h5.77q6.538 0 6.538-4.945 0-5-6.264-5.11zM271.83-37.08q0-5.385-5.44-5.577h-7.775v10.797h7.033q3.16 0 4.67-1.484 1.512-1.483 1.512-3.736z" aria-label="B" style="font-weight:700;font-size:64px;line-height:1.25;-inkscape-font-specification:&quot;sans-serif Bold&quot;;stroke-width:.702781"/></g></g></g></svg>