<svg xmlns="http://www.w3.org/2000/svg" xml:space="preserve" id="Layer_1" x="0" y="0" style="enable-background:new 0 0 400 225" version="1.1" viewBox="0 0 400 225"><defs id="defs552"><filter id="filter1321" width="1" height="1" x="0" y="0" style="color-interpolation-filters:sRGB"><feColorMatrix id="feColorMatrix1319" values="1 0 0 0.15 -0 0 1 0 0.15 -0 0 0 1 0.15 -0 0 0 0 1 0"/></filter><filter id="filter1325" width="1" height="1" x="0" y="0" style="color-interpolation-filters:sRGB"><feColorMatrix id="feColorMatrix1323" values="1 0 0 0.15 -0 0 1 0 0.15 -0 0 0 1 0.15 -0 0 0 0 1 0"/></filter><filter id="filter1329" width="1" height="1" x="0" y="0" style="color-interpolation-filters:sRGB"><feColorMatrix id="feColorMatrix1327" values="1 0 0 0.15 -0 0 1 0 0.15 -0 0 0 1 0.15 -0 0 0 0 1 0"/></filter><filter id="filter1349" width="1" height="1" x="0" y="0" style="color-interpolation-filters:sRGB"><feColorMatrix id="feColorMatrix1347" values="1 0 0 -0.1 -0 0 1 0 -0.1 -0 0 0 1 -0.1 -0 0 0 0 1 0"/></filter><filter id="filter1353" width="1" height="1" x="0" y="0" style="color-interpolation-filters:sRGB"><feColorMatrix id="feColorMatrix1351" values="1 0 0 -0.1 -0 0 1 0 -0.1 -0 0 0 1 -0.1 -0 0 0 0 1 0"/></filter><filter id="filter1357" width="1" height="1" x="0" y="0" style="color-interpolation-filters:sRGB"><feColorMatrix id="feColorMatrix1355" values="1 0 0 -0.1 -0 0 1 0 -0.1 -0 0 0 1 -0.1 -0 0 0 0 1 0"/></filter><filter id="filter1361" width="1" height="1" x="0" y="0" style="color-interpolation-filters:sRGB"><feColorMatrix id="feColorMatrix1359" values="1 0 0 -0.1 -0 0 1 0 -0.1 -0 0 0 1 -0.1 -0 0 0 0 1 0"/></filter><filter id="filter1365" width="1" height="1" x="0" y="0" style="color-interpolation-filters:sRGB"><feColorMatrix id="feColorMatrix1363" values="1 0 0 -0.1 -0 0 1 0 -0.1 -0 0 0 1 -0.1 -0 0 0 0 1 0"/></filter><filter id="filter1369" width="1" height="1" x="0" y="0" style="color-interpolation-filters:sRGB"><feColorMatrix id="feColorMatrix1367" values="1 0 0 -0.1 -0 0 1 0 -0.1 -0 0 0 1 -0.1 -0 0 0 0 1 0"/></filter><filter id="filter1373" width="1" height="1" x="0" y="0" style="color-interpolation-filters:sRGB"><feColorMatrix id="feColorMatrix1371" values="1 0 0 -0.1 -0 0 1 0 -0.1 -0 0 0 1 -0.1 -0 0 0 0 1 0"/></filter><filter id="filter1377" width="1" height="1" x="0" y="0" style="color-interpolation-filters:sRGB"><feColorMatrix id="feColorMatrix1375" values="1 0 0 -0.1 -0 0 1 0 -0.1 -0 0 0 1 -0.1 -0 0 0 0 1 0"/></filter><filter id="filter1381" width="1" height="1" x="0" y="0" style="color-interpolation-filters:sRGB"><feColorMatrix id="feColorMatrix1379" values="1 0 0 -0.1 -0 0 1 0 -0.1 -0 0 0 1 -0.1 -0 0 0 0 1 0"/></filter></defs><style id="style465" type="text/css">.st0{fill:none}.st1{fill:#f0f1f6}.st2{fill:#e2e3e8}</style><path id="rect467" d="M0 0h400v225H0z" class="st0"/><g id="g831" style="stroke-width:3.64511" transform="matrix(1.0371 0 0 1.03666 99.642 51.47)"><path id="path202" d="m266.109 151.105 2.4 97.2 181.19-17.858 1.51-92.642zm0 0-7.579-6.744 181.005-12.513 11.674 5.957z" style="fill:none;stroke:#000;stroke-width:.182255;stroke-linecap:butt;stroke-linejoin:bevel;stroke-dasharray:none;stroke-opacity:.903854" transform="translate(-258.109 -131.205)"/><path id="path204" d="m266.109 151.105 2.4 97.2-7.727-8.812-2.238-95.167c2.751 2.6 5.016 4.53 7.565 6.779z" style="fill:none;stroke:#000;stroke-width:.182255;stroke-linecap:butt;stroke-linejoin:bevel;stroke-dasharray:none;stroke-opacity:.903854" transform="translate(-258.109 -131.205)"/><path id="path206" d="m258.53 144.361 181.005-12.513 11.674 5.957-185.1 13.3z" class="st0" style="fill:#9aadd7;stroke-width:.96443;filter:url(#filter1321)" transform="translate(-258.109 -131.205)"/><path id="path208" d="M253.051 215.292c.322.784.925 1.568 1.801 2.339 1.746 1.498 4.503 2.928 8.145 4.216l47.83-3.437 10.112-3.831h-.003l12.849-4.868z" style="font-variation-settings:normal;vector-effect:none;fill:#f9fd91;fill-opacity:1;stroke-width:.96443;stroke-linecap:butt;stroke-linejoin:miter;stroke-miterlimit:4;stroke-dasharray:none;stroke-dashoffset:0;stroke-opacity:1;-inkscape-stroke:none;paint-order:stroke fill markers;stop-color:#000;filter:url(#filter1325)" transform="translate(-245.686 -202.617)"/><path id="path210" d="m333.786 209.711-12.85 4.868h.003l-10.112 3.831 33.877-2.434c-.226-1.485-1.464-2.971-3.636-4.385-1.122-.727-2.484-1.431-4.066-2.102zm-72.93 11.34" style="font-variation-settings:normal;vector-effect:none;fill:#f0f48c;fill-opacity:1;stroke-width:.96443;stroke-linecap:butt;stroke-linejoin:miter;stroke-miterlimit:4;stroke-dasharray:none;stroke-dashoffset:0;stroke-opacity:1;-inkscape-stroke:none;paint-order:stroke fill markers;stop-color:#000;filter:url(#filter1329)" transform="translate(-245.686 -202.617)"/><path id="path212" d="m553.375 616.121-7.565-6.778-2.4-97.2 7.727 8.812z" class="st0" style="fill:#9aadd7;stroke-width:.96443" transform="rotate(180 276.905 314.621)"/><path id="path214" d="m656.317 381.778 7.291-8.356-.236-10.051-7.727-8.813z" class="st1" style="fill:#717e9c;stroke-width:.96443" transform="rotate(180 333.022 235.829)"/><path id="path216" d="m656.323 382.019 7.296-8.137-.199-8.483-7.303 8.259z" class="st2" style="fill:#7884a0;stroke-width:.96443" transform="rotate(180 333.022 235.829)"/><path id="path218" d="m406.913 370.43 185.081 13.298-1.509-92.643-181.172-17.855Z" class="st0" style="fill:#9aadd7;stroke-width:.96443;filter:url(#filter1373)" transform="matrix(1 0 0 -1 -398.913 390.33)"/><path id="path220" d="m430.597 317.944-21.95-17.736.666-26.978 55.736 5.493-.258 21.427z" class="st1" style="fill:#717e9c;stroke-width:.96443;filter:url(#filter1349)" transform="matrix(1 0 0 -1 -398.913 390.33)"/><path id="path222" d="m430.701 318.058-22.06-17.609.206-8.347 27.709 22.456z" class="st2" style="fill:#7884a0;stroke-width:.96443;filter:url(#filter1353)" transform="matrix(1 0 0 -1 -398.913 390.33)"/><path id="path224" d="m517.163 309.38-32.99 17.675-64.944-52.742 97.94 9.652z" class="st1" style="fill:#717e9c;stroke-width:.96443;filter:url(#filter1357)" transform="matrix(1 0 0 -1 -398.913 390.436)"/><path id="path226" d="m489.918 323.694-5.643 3.474-65.991-52.948 12.393 1.221z" class="st2" style="fill:#7884a0;stroke-width:.96443;filter:url(#filter1361)" transform="matrix(1 0 0 -1 -398.913 390.436)"/><path id="path228" d="m557.967 352.176-89.242-72.906 121.779 12.002.695 42.667z" class="st1" style="fill:#717e9c;stroke-width:.96443;filter:url(#filter1365)" transform="matrix(1 0 0 -1 -398.913 390.515)"/><path id="path230" d="m565.658 347.459-7.691 4.717-88.243-72.685 15.956 1.572z" class="st2" style="fill:#7884a0;stroke-width:.96443;filter:url(#filter1369)" transform="matrix(1 0 0 -1 -398.913 390.515)"/><path id="path232" d="M251.845 581.618c3.643-8.785 10.04-15.951 18.208-20.44l21.766 17.673-.003.002 7.617 6.185zm18.449-20.582q.226-.123.453-.243-.227.12-.453.243m3.14-1.533.344-.145zm3.071-1.187.417-.142q-.21.07-.417.142m6.366-1.62" style="font-variation-settings:normal;vector-effect:none;fill:#f9fd91;fill-opacity:1;stroke-width:.96443;stroke-linecap:butt;stroke-linejoin:miter;stroke-miterlimit:4;stroke-dasharray:none;stroke-dashoffset:0;stroke-opacity:1;-inkscape-stroke:none;paint-order:stroke fill markers;stop-color:#000;filter:url(#filter1381)" transform="matrix(1 0 0 -1 -234.705 600.862)"/><path id="path234" d="m299.433 585.038-7.617-6.185.003-.002-21.755-17.665a41 41 0 0 1 10.187-3.953 42 42 0 0 1 2.992-.597 42.5 42.5 0 0 1 10.215-.429c17.891 1.427 33.709 13.839 39.932 31.271zm-25.999-25.534.344-.145zm3.071-1.188.417-.141z" style="font-variation-settings:normal;vector-effect:none;fill:#f0f48c;fill-opacity:1;stroke-width:.96443;stroke-linecap:butt;stroke-linejoin:miter;stroke-miterlimit:4;stroke-dasharray:none;stroke-dashoffset:0;stroke-opacity:1;-inkscape-stroke:none;paint-order:stroke fill markers;stop-color:#000;filter:url(#filter1377)" transform="matrix(1 0 0 -1 -234.705 600.862)"/></g></svg>