<?xml version="1.0" standalone="no"?>
<!DOCTYPE svg PUBLIC "-//W3C//DTD SVG 1.0//EN" "http://www.w3.org/TR/2001/REC-SVG-20010904/DTD/svg10.dtd">
<svg xmlns="http://www.w3.org/2000/svg" xmlns:xlink="http://www.w3.org/1999/xlink" id="body_1" width="358" height="269">

<g transform="matrix(0.69921875 0 0 0.7005209 0 0)">
	<g transform="matrix(0.75 0 0 0.75 64.000015 -0)">
        <path d="M278 513C 185.35582 513 93.21164 513 1.033728 513C 1.033728 342.39746 1.033728 171.7949 1.033728 1.096182C 171.56087 1.096182 342.1218 1.096182 512.8414 1.096182C 512.8414 171.66655 512.8414 342.33325 512.8414 513C 434.7949 513 356.64743 513 278 513zM417.92435 233.02834C 425.70883 233.01875 433.49356 233.04314 441.2777 232.98814C 446.86996 232.94865 448.94583 230.82127 448.99948 225.2635C 449.05777 219.22566 447.0954 217.07327 441.33536 217.009C 433.22348 216.91847 425.11096 216.88795 417.00018 215.97064C 415.67944 207.94247 414.35873 199.9143 413.025 191.07124C 412.02338 187.42458 411.02176 183.7779 410.6222 179.82227C 414.38782 176.0577 418.2839 172.41277 421.87866 168.49155C 424.86868 165.22993 424.90863 159.67444 422.10168 156.6912C 419.00342 153.3983 415.00873 152.80144 411.3127 155.06712C 408.42346 156.83826 406.1965 159.68977 403.07916 161.50455C 402.996 160.84895 403.07788 160.11372 402.80554 159.54942C 395.9466 145.33711 387.8775 131.79941 377.3804 120.02982C 360.2155 100.78415 340.05685 85.57536 315.8538 75.869705C 301.7562 70.21643 287.21735 66.38701 272.24774 65.24795C 260.42786 64.348564 248.41537 65.30286 236.53165 66.088C 220.88022 67.12208 205.95729 71.740326 191.8112 78.1671C 170.55887 87.82234 151.78539 101.03568 136.38931 118.955025C 125.380806 131.76772 116.48227 145.74496 109.14943 160.68999C 107.638756 159.16888 106.216675 157.54526 104.59938 156.14754C 100.96254 153.0044 95.19938 153.17232 92.12843 156.39365C 89.08382 159.58734 89.08252 165.43655 92.37774 168.8541C 95.81118 172.41498 99.47077 175.75781 102.99348 179.9747C 99.4687 192.01573 96.90469 204.21294 96.07042 216.96907C 88.41091 216.97977 80.75126 216.96567 73.091934 217.00905C 67.00875 217.04349 65.01074 219.04163 65.00152 224.96483C 64.99222 230.93036 66.97482 232.93741 73.02193 232.99342C 81.01147 233.06744 89.001335 233.10458 96.98996 234.02428C 97.043144 236.35864 97.09633 238.693 97.01551 241.88739C 98.677986 251.86813 100.34047 261.84888 101.388306 272.13007C 98.32571 275.18192 95.18049 278.15625 92.224594 281.30817C 89.46529 284.2505 89.324066 287.6953 90.78755 291.34525C 92.33247 295.1982 95.56477 296.7566 99.112686 295.82425C 102.22325 295.0068 104.93691 292.67896 107.965195 291.7595C 109.2772 294.51343 110.589195 297.26736 112.02242 300.7599C 114.74497 306.0709 117.19397 311.54575 120.2539 316.65466C 124.8951 324.40375 130.27573 331.7174 134.77563 339.54193C 142.34122 352.6971 144.55194 367.31873 144.93593 382.21155C 145.24939 394.36975 144.9997 406.54245 144.9997 418.70874C 144.9997 428.66397 144.9997 438.6192 144.9997 448.7717C 198.48479 448.7717 251.55159 448.7717 305.40637 448.7717C 304.929 444.63205 304.64468 440.75723 304.00525 436.942C 302.9647 430.73312 307.8034 425.9301 313.88876 426.87936C 321.94492 428.13608 330.06488 428.98477 338.1586 429.9995C 346.08884 430.99377 353.99686 432.43887 361.95764 432.84622C 371.76562 433.3481 381.81326 434.2206 391.40695 432.7091C 407.0775 430.24014 417.51755 417.11093 417.0956 400.95337C 416.66507 384.46518 417.0184 367.9569 416.9933 351.4575C 416.9791 342.11227 420.79056 335.1479 429.46643 331.18713C 432.84207 329.64612 436.25223 328.1781 439.67188 326.73657C 446.27106 323.95474 448.24774 318.66302 445.0237 312.20648C 438.43314 299.00812 432.03937 285.70547 425.15817 272.66016C 419.90012 262.69202 415.9259 252.54655 416.97684 240.16267C 416.98315 237.83125 416.98947 235.49982 417.92435 233.02834z" stroke="none" fill="none" />
        <path d="M102.00296 271.82962C 100.34047 261.84888 98.677986 251.86813 97.54119 241.44774C 102.56341 241.00548 107.06038 241.04184 111.55636 240.99039C 117.15261 240.92633 120.365166 238.50806 120.93215 234.03482C 121.52156 229.3846 118.838806 226.25722 113.069855 224.60443C 111.9149 219.03026 108.581726 216.84125 103.41332 216.98041C 101.27863 217.03789 99.138535 216.89453 97.0009 216.84253C 96.90469 204.21294 99.4687 192.01573 103.34004 179.62209C 108.47517 183.74466 113.26371 188.21986 118.17161 193.02547C 120.09835 195.26813 121.74453 197.3732 123.7494 199.04921C 127.09293 201.84438 131.65106 201.6065 134.57925 198.79486C 137.50632 195.98427 137.97388 191.321 135.21582 188.00685C 133.35275 185.76816 130.90498 184.01605 128.49756 181.81009C 125.47029 178.53812 122.64529 175.51956 119.86302 172.46214C 116.43572 168.6959 113.04402 164.89726 109.63694 161.11263C 116.48227 145.74496 125.380806 131.76772 136.38931 118.955025C 151.78539 101.03568 170.55887 87.82234 191.8112 78.1671C 205.95729 71.740326 220.88022 67.12208 236.53165 66.088C 248.41537 65.30286 260.42786 64.348564 272.24774 65.24795C 287.21735 66.38701 301.7562 70.21643 315.8538 75.869705C 340.05685 85.57536 360.2155 100.78415 377.3804 120.02982C 387.8775 131.79941 395.9466 145.33711 402.80554 159.54942C 403.07788 160.11372 402.996 160.84895 403.28503 162.14203C 398.62198 167.7789 393.75714 172.78227 388.88315 177.7767C 382.40094 184.41908 384.06058 190.68468 392.98837 193.51706C 395.5802 201.73727 401.78778 203.40549 407.69156 197.74347C 409.59528 195.91776 411.26257 193.84558 413.03802 191.88614C 414.35873 199.9143 415.67944 207.94247 416.54877 216.46918C 414.45032 216.97763 412.8033 216.98409 411.15634 216.99812C 405.0454 217.05016 401.57233 219.52222 401.06818 224.17525C 400.5904 228.58466 403.2258 231.57654 409.00372 233.52133C 409.79108 238.27129 412.40814 240.64062 416.83633 241.03099C 415.9259 252.54655 419.90012 262.69202 425.15817 272.66016C 432.03937 285.70547 438.43314 299.00812 445.0237 312.20648C 448.24774 318.66302 446.27106 323.95474 439.67188 326.73657C 436.25223 328.1781 432.84207 329.64612 429.46643 331.18713C 420.79056 335.1479 416.9791 342.11227 416.9933 351.4575C 417.0184 367.9569 416.66507 384.46518 417.0956 400.95337C 417.51755 417.11093 407.0775 430.24014 391.40695 432.7091C 381.81326 434.2206 371.76562 433.3481 361.95764 432.84622C 353.99686 432.43887 346.08884 430.99377 338.1586 429.9995C 330.06488 428.98477 321.94492 428.13608 313.88876 426.87936C 307.8034 425.9301 302.9647 430.73312 304.00525 436.942C 304.64468 440.75723 304.929 444.63205 305.40637 448.7717C 251.55159 448.7717 198.48479 448.7717 144.9997 448.7717C 144.9997 438.6192 144.9997 428.66397 144.9997 418.70874C 144.9997 406.54245 145.24939 394.36975 144.93593 382.21155C 144.55194 367.31873 142.34122 352.6971 134.77563 339.54193C 130.27573 331.7174 124.8951 324.40375 120.2539 316.65466C 117.19397 311.54575 114.74497 306.0709 112.31027 300.34717C 119.7304 293.1157 127.109024 286.5273 133.8377 279.3312C 135.73918 277.29767 136.64224 273.40552 136.38176 270.51178C 136.06252 266.96524 132.84758 265.18692 129.0723 264.62402C 126.28347 256.19403 120.37084 254.6333 114.30413 260.3577C 110.22624 264.2055 106.10488 268.00726 102.00296 271.82962zM335.583 168.75746C 335.26492 168.5222 334.9468 168.28693 334.134 167.64673C 321.35074 151.12628 305.17566 139.38246 285.1632 133.17368C 267.90527 127.81947 250.46637 127.84521 232.97488 130.9853C 233.0424 121.94919 233.04509 121.97156 241.59288 120.94771C 245.97803 120.422455 248.54243 117.92142 248.93626 113.51075C 249.338 109.011566 246.69128 106.2136 240.98409 104.25086C 240.21007 99.76636 237.36505 97.50368 232.98137 96.119125C 232.20074 91.73785 229.60373 89.34342 224.9863 88.25081C 223.17918 82.88786 220.05453 80.43965 215.844 81.08767C 211.51295 81.754234 209.0823 85.10511 208.99869 90.571655C 208.96693 92.64718 208.99353 94.723595 208.99353 96.74134C 196.52563 97.531105 193.69034 98.89257 193.06812 104.08482C 192.53676 108.51864 195.19029 111.56704 201.0161 113.88037C 201.78902 118.27141 204.40688 120.64402 209.0114 121.74671C 209.78165 126.23625 212.63298 128.48979 217.01604 129.86575C 218.07872 131.97403 219.14139 134.08229 219.71097 136.68384C 219.10849 136.96526 218.50687 137.24849 217.90343 137.52783C 178.09099 155.95839 155.7125 196.69795 162.20602 239.93271C 165.7546 263.5597 177.09856 283.21796 195.47815 298.4616C 204.94191 306.3107 209.55539 315.8347 209.02254 328.02795C 208.89212 331.01202 209.10661 334.0112 209.02623 337.92874C 209.07205 342.95804 209.11789 347.9873 209.01979 353.93964C 209.06776 358.95416 209.11574 363.96872 209.02629 369.9133C 209.01791 374.69608 208.95282 379.47952 209.01312 384.26144C 209.13385 393.83743 215.24142 400.28848 224.90596 401.85135C 225.3383 408.66577 229.46811 412.86343 235.10962 416.75247C 238.39822 422.49277 243.41403 425.055 249.95929 425.0138C 259.61432 424.953 269.27 425.008 278.92538 424.99603C 288.7597 424.98383 293.55963 421.44888 296.8191 412.2912C 297.31604 410.8949 298.80887 409.35187 300.1928 408.8535C 309.44748 405.52072 312.98856 400.7831 312.99512 391.03012C 313.00812 371.7193 312.88297 352.4075 313.04794 333.09808C 313.13638 322.74692 317.19778 314.06644 325.31448 307.45377C 346.83688 289.91937 358.68854 267.10532 360.82193 239.6444C 362.60907 216.64055 356.23026 195.52979 342.74258 176.72523C 341.18515 174.55383 338.86502 172.92952 336.9663 171.01578C 336.9663 171.01578 336.9454 171.08955 336.90393 170.45317C 336.46274 170.0532 336.02155 169.65324 335.7196 169.19026C 335.7196 169.19026 335.75452 169.33907 335.583 168.75746zM412.39935 295.45206C 412.7603 295.57278 413.1213 295.6935 413.73877 295.76462C 413.73877 295.76462 413.95718 295.90793 414.05933 296.61172C 415.9941 298.56046 417.75455 300.734 419.90643 302.40274C 422.80096 304.64737 426.285 304.1919 428.42816 301.6975C 430.13126 299.71536 431.88074 295.96204 431.08234 294.05084C 429.7671 290.90253 426.40955 288.60736 423.7698 285.73514C 423.7698 285.73514 423.81964 285.47964 423.73016 284.90518C 423.49878 284.603 423.26743 284.30084 422.6048 283.4895C 414.77087 275.57947 407.01056 267.59448 399.07043 259.79254C 395.35864 256.14532 390.78287 256.11862 387.49326 259.2678C 384.18973 262.43027 384.00537 267.19574 387.57037 270.82843C 395.59946 279.01004 403.8455 286.97876 412.39935 295.45206zM145.00046 329.75537C 145.79462 334.22333 148.63333 336.49152 153.01399 337.8791C 154.75793 343.2185 157.83427 345.57263 162.214 344.9193C 166.6112 344.26334 169.31004 341.03397 168.88332 335.43436C 168.46649 329.96475 170.58473 328.5939 175.65953 328.89737C 181.16818 329.22678 184.40076 326.4498 184.93593 321.98676C 185.49345 317.3375 182.82341 314.24118 176.99376 312.24652C 176.19952 307.78296 173.37233 305.5019 168.98479 304.11917C 168.20157 299.73923 165.59846 297.34842 160.99683 296.24228C 159.16776 290.88184 156.06638 288.4557 151.85847 289.09357C 147.52634 289.7503 145.08966 293.0876 144.9997 298.5377C 144.96555 300.60663 144.99416 302.67654 144.99416 304.67065C 132.38345 305.69437 129.67188 307.01367 129.0724 312.10013C 128.55106 316.52377 131.19344 319.55887 137.01315 321.88052C 137.78783 326.2708 140.41269 328.63867 145.00046 329.75537zM376.9813 320.1191C 376.20108 315.73676 373.60263 313.3434 368.98004 312.25134C 367.1923 306.88745 364.05328 304.42728 359.8321 305.08176C 355.49646 305.75403 353.0757 309.10745 352.99783 314.5932C 352.9683 316.67352 352.99304 318.75467 352.99304 320.84503C 346.3362 321.37885 338.89542 319.08234 337.12057 328.08386C 336.2559 332.46918 339.18494 335.57864 345.01633 337.88016C 345.7885 342.27258 348.40787 344.64404 353.01758 345.7462C 353.76797 350.25537 356.63644 352.4907 361.01718 353.87848C 362.75394 359.2164 365.83264 361.5732 370.2145 360.91925C 374.61166 360.26297 377.31046 357.03354 376.8832 351.43317C 376.4657 345.96054 378.58902 344.59476 383.66144 344.8974C 389.16943 345.2261 392.4024 342.44785 392.93616 337.98407C 393.4926 333.33023 390.81564 330.2308 384.9796 328.25443C 384.22427 323.75272 381.3683 321.50226 376.9813 320.1191z" stroke="none" fill="#F2C8A0" fill-rule="nonzero" />
        <path d="M392.96307 193.15532C 384.06058 190.68468 382.40094 184.41908 388.88315 177.7767C 393.75714 172.78227 398.62198 167.7789 403.58307 162.42036C 406.1965 159.68977 408.42346 156.83826 411.3127 155.06712C 415.00873 152.80144 419.00342 153.3983 422.10168 156.6912C 424.90863 159.67444 424.86868 165.22993 421.87866 168.49155C 418.2839 172.41277 414.38782 176.0577 409.99112 180.02054C 407.57828 181.93251 405.93552 183.82788 403.9845 185.32039C 400.40665 188.05743 396.64697 190.55684 392.96307 193.15532z" stroke="none" fill="#C90D51" fill-rule="nonzero" />
        <path d="M109.39319 160.9013C 113.04402 164.89726 116.43572 168.6959 119.86302 172.46214C 122.64529 175.51956 125.47029 178.53812 128.5339 182.2233C 129.07346 190.4508 125.887474 193.36478 118.05226 192.69505C 113.26371 188.21986 108.47517 183.74466 103.35904 179.23273C 99.47077 175.75781 95.81118 172.41498 92.37774 168.8541C 89.08252 165.43655 89.08382 159.58734 92.12843 156.39365C 95.19938 153.17232 100.96254 153.0044 104.59938 156.14754C 106.216675 157.54526 107.638756 159.16888 109.39319 160.9013z" stroke="none" fill="#03A0C7" fill-rule="nonzero" />
        <path d="M101.69563 271.97986C 106.10488 268.00726 110.22624 264.2055 114.30413 260.3577C 120.37084 254.6333 126.28347 256.19403 128.99164 264.98416C 127.79135 267.7968 126.92394 270.2017 125.32124 271.92126C 120.61479 276.97092 115.56733 281.70108 110.76634 286.66556C 109.56764 287.9051 108.794586 289.5563 107.82589 291.01825C 104.93691 292.67896 102.22325 295.0068 99.112686 295.82425C 95.56477 296.7566 92.33247 295.1982 90.78755 291.34525C 89.324066 287.6953 89.46529 284.2505 92.224594 281.30817C 95.18049 278.15625 98.32571 275.18192 101.69563 271.97986z" stroke="none" fill="#03A0C7" fill-rule="nonzero" />
        <path d="M96.53566 216.90579C 99.138535 216.89453 101.27863 217.03789 103.41332 216.98041C 108.581726 216.84125 111.9149 219.03026 112.99422 224.97072C 111.96372 230.95447 108.61761 233.14925 103.428215 233.0213C 101.28492 232.96844 99.136925 233.1064 96.991066 233.15758C 89.001335 233.10458 81.01147 233.06744 73.02193 232.99342C 66.97482 232.93741 64.99222 230.93036 65.00152 224.96483C 65.01074 219.04163 67.00875 217.04349 73.091934 217.00905C 80.75126 216.96567 88.41091 216.97977 96.53566 216.90579z" stroke="none" fill="#C80B50" fill-rule="nonzero" />
        <path d="M408.98386 233.16174C 403.2258 231.57654 400.5904 228.58466 401.06818 224.17525C 401.57233 219.52222 405.0454 217.05016 411.15634 216.99812C 412.8033 216.98409 414.45032 216.97763 416.54803 216.89975C 425.11096 216.88795 433.22348 216.91847 441.33536 217.009C 447.0954 217.07327 449.05777 219.22566 448.99948 225.2635C 448.94583 230.82127 446.86996 232.94865 441.2777 232.98814C 433.49356 233.04314 425.70883 233.01875 417.01913 233.03348C 413.73724 233.07967 411.36053 233.12071 408.98386 233.16174z" stroke="none" fill="#02A0C8" fill-rule="nonzero" />
        <path d="M107.89554 291.3889C 108.794586 289.5563 109.56764 287.9051 110.76634 286.66556C 115.56733 281.70108 120.61479 276.97092 125.32124 271.92126C 126.92394 270.2017 127.79135 267.7968 129.0754 265.3449C 132.84758 265.18692 136.06252 266.96524 136.38176 270.51178C 136.64224 273.40552 135.73918 277.29767 133.8377 279.3312C 127.109024 286.5273 119.7304 293.1157 112.24966 299.97784C 110.589195 297.26736 109.2772 294.51343 107.89554 291.3889z" stroke="none" fill="#D3AB83" fill-rule="nonzero" />
        <path d="M96.99051 233.59093C 99.136925 233.1064 101.28492 232.96844 103.428215 233.0213C 108.61761 233.14925 111.96372 230.95447 113.07572 225.33081C 118.838806 226.25722 121.52156 229.3846 120.93215 234.03482C 120.365166 238.50806 117.15261 240.92633 111.55636 240.99039C 107.06038 241.04184 102.56341 241.00548 97.6082 241.01773C 97.09633 238.693 97.043144 236.35864 96.99051 233.59093z" stroke="none" fill="#D3AB83" fill-rule="nonzero" />
        <path d="M392.98837 193.51706C 396.64697 190.55684 400.40665 188.05743 403.9845 185.32039C 405.93552 183.82788 407.57828 181.93251 409.69006 180.17502C 411.02176 183.7779 412.02338 187.42458 413.03152 191.4787C 411.26257 193.84558 409.59528 195.91776 407.69156 197.74347C 401.78778 203.40549 395.5802 201.73727 392.98837 193.51706z" stroke="none" fill="#D3AB83" fill-rule="nonzero" />
        <path d="M409.00372 233.52133C 411.36053 233.12071 413.73724 233.07967 416.55487 233.10352C 416.98947 235.49982 416.98315 237.83125 416.9066 240.59683C 412.40814 240.64062 409.79108 238.27129 409.00372 233.52133z" stroke="none" fill="#D3AB83" fill-rule="nonzero" />
        <path d="M232.95296 131.89238C 250.46637 127.84521 267.90527 127.81947 285.1632 133.17368C 305.17566 139.38246 321.35074 151.12628 334.4876 168.13272C 335.14566 168.85884 335.4501 169.09895 335.75452 169.33907C 335.75452 169.33907 335.7196 169.19026 335.7134 169.52007C 336.11993 170.26309 336.53268 170.67633 336.9454 171.08955C 336.9454 171.08955 336.9663 171.01578 336.98196 171.38327C 346.49335 186.4408 352.1943 202.48293 352.84552 219.97269C 354.03586 251.94064 342.27823 278.44244 317.81033 299.08078C 309.1824 306.3583 304.958 315.35303 304.99356 326.52246C 305.00467 330.01355 304.89224 333.50504 304.37796 336.99725C 290.9406 336.95056 277.9617 336.903 264.98862 336.39948C 264.98947 325.60828 264.98447 315.27307 265.3345 304.76843C 266.17627 304.48697 266.65762 304.33575 267.15045 304.2683C 312.30664 298.0889 342.08926 258.45914 336.01212 212.63081C 330.40253 170.32823 289.60498 140.09282 245.90266 145.8499C 212.31197 150.27492 185.2161 176.00151 178.38373 209.95673C 171.84471 242.45415 187.3201 276.66913 216.15399 293.80167C 226.35158 299.86087 237.47542 302.96753 249.01306 305.41113C 249.00948 316.20807 249.01337 326.53177 248.54953 336.90088C 235.10872 336.96536 222.13564 336.98438 209.16255 337.00342C 209.10661 334.0112 208.89212 331.01202 209.02254 328.02795C 209.55539 315.8347 204.94191 306.3107 195.47815 298.4616C 177.09856 283.21796 165.7546 263.5597 162.20602 239.93271C 155.7125 196.69795 178.09099 155.95839 217.90343 137.52783C 218.50687 137.24849 219.10849 136.96526 220.3228 136.3949C 224.94073 134.70145 228.94685 133.29692 232.95296 131.89238z" stroke="none" fill="#03A1C8" fill-rule="nonzero" />
        <path d="M209.09439 337.46606C 222.13564 336.98438 235.10872 336.96536 249.01399 336.96283C 254.95837 336.93802 259.97055 336.89673 264.98276 336.85547C 277.9617 336.903 290.9406 336.95056 304.4422 337.4624C 304.92166 348.2886 304.87845 358.6505 304.37738 369.00897C 296.76562 369.00348 289.61136 368.9553 282.45798 369.0137C 276.49567 369.06238 273.05603 372.021 273.0292 376.95673C 273.0023 381.90747 276.44257 384.93375 282.374 384.9839C 289.86002 385.0472 297.34708 384.99194 304.88797 385.38025C 303.5703 395.19354 298.76257 399.8244 288.57242 401.05823C 267.0126 401.03918 245.92204 401.05008 224.83148 401.06097C 215.24142 400.28848 209.13385 393.83743 209.01312 384.26144C 208.95282 379.47952 209.01791 374.69608 209.553 369.45316C 217.23318 368.99548 224.38707 369.04532 231.54004 368.98584C 237.50215 368.93628 240.94286 365.97397 240.96938 361.0391C 240.99596 356.0925 237.54976 353.0641 231.62215 353.01578C 224.1365 352.9547 216.6499 353.01096 209.16373 353.0166C 209.11789 347.9873 209.07205 342.95804 209.09439 337.46606z" stroke="none" fill="#0A5078" fill-rule="nonzero" />
        <path d="M289.04166 401.08817C 298.76257 399.8244 303.5703 395.19354 304.9577 384.91766C 304.92715 379.04596 304.88123 374.02917 304.83527 369.01242C 304.87845 358.6505 304.92166 348.2886 304.9006 337.46152C 304.89224 333.50504 305.00467 330.01355 304.99356 326.52246C 304.958 315.35303 309.1824 306.3583 317.81033 299.08078C 342.27823 278.44244 354.03586 251.94064 352.84552 219.97269C 352.1943 202.48293 346.49335 186.4408 336.94806 171.40115C 338.86502 172.92952 341.18515 174.55383 342.74258 176.72523C 356.23026 195.52979 362.60907 216.64055 360.82193 239.6444C 358.68854 267.10532 346.83688 289.91937 325.31448 307.45377C 317.19778 314.06644 313.13638 322.74692 313.04794 333.09808C 312.88297 352.4075 313.00812 371.7193 312.99512 391.03012C 312.98856 400.7831 309.44748 405.52072 300.1928 408.8535C 298.80887 409.35187 297.31604 410.8949 296.8191 412.2912C 293.55963 421.44888 288.7597 424.98383 278.92538 424.99603C 269.27 425.008 259.61432 424.953 249.95929 425.0138C 243.41403 425.055 238.39822 422.49277 235.46344 416.43512C 237.94228 416.41257 240.0651 416.94226 242.19266 416.96204C 251.9957 417.05325 261.8002 417.0375 271.6039 416.99274C 281.84167 416.94595 287.83023 411.44684 289.04166 401.08817z" stroke="none" fill="#D1AA83" fill-rule="nonzero" />
        <path d="M216.96657 129.15073C 212.63298 128.48979 209.78165 126.23625 208.98454 120.94145C 208.95769 117.876114 208.95769 115.616035 208.95769 113.16081C 205.88884 113.16081 203.42865 113.16081 200.96846 113.16081C 195.19029 111.56704 192.53676 108.51864 193.06812 104.08482C 193.69034 98.89257 196.52563 97.531105 208.99353 96.74134C 208.99353 94.723595 208.96693 92.64718 208.99869 90.571655C 209.0823 85.10511 211.51295 81.754234 215.844 81.08767C 220.05453 80.43965 223.17918 82.88786 225.014 89.05737C 225.04172 92.12398 225.04172 94.38401 225.04172 96.838104C 228.11113 96.838104 230.57126 96.838104 233.03139 96.838104C 237.36505 97.50368 240.21007 99.76636 240.986 104.97377C 239.18378 115.08856 231.15927 112.3737 225.06871 113.249565C 224.87405 120.18936 226.50366 127.680244 216.96657 129.15073z" stroke="none" fill="#0E5279" fill-rule="nonzero" />
        <path d="M360.96967 353.1536C 356.63644 352.4907 353.76797 350.25537 352.9914 344.94037C 352.96524 341.80017 352.96524 339.4658 352.96524 337.16025C 349.79703 337.16025 347.38278 337.16025 344.96857 337.16025C 339.18494 335.57864 336.2559 332.46918 337.12057 328.08386C 338.89542 319.08234 346.3362 321.37885 352.99304 320.84503C 352.99304 318.75467 352.9683 316.67352 352.99783 314.5932C 353.0757 309.10745 355.49646 305.75403 359.8321 305.08176C 364.05328 304.42728 367.1923 306.88745 369.0071 313.05847C 369.03418 316.19995 369.03418 318.53433 369.03418 320.8384C 372.20328 320.8384 374.61758 320.8384 377.03186 320.8384C 381.3683 321.50226 384.22427 323.75272 384.9826 328.9765C 383.16812 339.12955 375.15515 336.40515 369.05838 337.20343C 368.86807 344.16263 370.56253 351.67532 360.96967 353.1536z" stroke="none" fill="#04173E" fill-rule="nonzero" />
        <path d="M136.96175 321.16193C 131.19344 319.55887 128.55106 316.52377 129.0724 312.10013C 129.67188 307.01367 132.38345 305.69437 144.99416 304.67065C 144.99416 302.67654 144.96555 300.60663 144.9997 298.5377C 145.08966 293.0876 147.52634 289.7503 151.85847 289.09357C 156.06638 288.4557 159.16776 290.88184 161.02448 297.04898C 161.05212 300.09668 161.05212 302.3377 161.05212 304.83716C 164.15807 304.83716 166.59879 304.83716 169.0395 304.83716C 173.37233 305.5019 176.19952 307.78296 176.99963 312.9718C 175.25148 323.09644 167.17656 320.3391 161.10623 321.31216C 160.85896 328.22223 162.49652 335.7399 152.96277 337.1558C 148.63333 336.49152 145.79462 334.22333 144.97385 328.94995C 144.94725 325.90363 144.94725 323.66272 144.94725 321.16193C 141.84274 321.16193 139.40224 321.16193 136.96175 321.16193z" stroke="none" fill="#C90D51" fill-rule="nonzero" />
        <path d="M288.57242 401.05823C 287.83023 411.44684 281.84167 416.94595 271.6039 416.99274C 261.8002 417.0375 251.9957 417.05325 242.19266 416.96204C 240.0651 416.94226 237.94228 416.41257 235.39796 416.10083C 229.46811 412.86343 225.3383 408.66577 224.86871 401.45618C 245.92204 401.05008 267.0126 401.03918 288.57242 401.05823z" stroke="none" fill="#02153D" fill-rule="nonzero" />
        <path d="M413.95718 295.90793C 413.95718 295.90793 413.73877 295.76462 413.42667 295.55774C 412.7441 295.2453 412.37366 295.13974 412.0032 295.03415C 403.8455 286.97876 395.59946 279.01004 387.57037 270.82843C 384.00537 267.19574 384.18973 262.43027 387.49326 259.2678C 390.78287 256.11862 395.35864 256.14532 399.07043 259.79254C 407.01056 267.59448 414.77087 275.57947 422.856 284.03503C 423.34467 284.88028 423.58215 285.17996 423.81964 285.47964C 423.81964 285.47964 423.7698 285.73514 423.77252 286.22192C 422.59036 293.5095 421.1649 294.84512 413.95718 295.90793z" stroke="none" fill="#C90F52" fill-rule="nonzero" />
        <path d="M209.09175 353.47812C 216.6499 353.01096 224.1365 352.9547 231.62215 353.01578C 237.54976 353.0641 240.99596 356.0925 240.96938 361.0391C 240.94286 365.97397 237.50215 368.93628 231.54004 368.98584C 224.38707 369.04532 217.23318 368.99548 209.6217 368.98813C 209.11574 363.96872 209.06776 358.95416 209.09175 353.47812z" stroke="none" fill="#00153D" fill-rule="nonzero" />
        <path d="M360.9934 353.51605C 370.56253 351.67532 368.86807 344.16263 369.05838 337.20343C 375.15515 336.40515 383.16812 339.12955 385.06818 329.33432C 390.81564 330.2308 393.4926 333.33023 392.93616 337.98407C 392.4024 342.44785 389.16943 345.2261 383.66144 344.8974C 378.58902 344.59476 376.4657 345.96054 376.8832 351.43317C 377.31046 357.03354 374.61166 360.26297 370.2145 360.91925C 365.83264 361.5732 362.75394 359.2164 360.9934 353.51605z" stroke="none" fill="#D3AB83" fill-rule="nonzero" />
        <path d="M152.98837 337.51746C 162.49652 335.7399 160.85896 328.22223 161.10623 321.31216C 167.17656 320.3391 175.25148 323.09644 177.08014 313.3302C 182.82341 314.24118 185.49345 317.3375 184.93593 321.98676C 184.40076 326.4498 181.16818 329.22678 175.65953 328.89737C 170.58473 328.5939 168.46649 329.96475 168.88332 335.43436C 169.31004 341.03397 166.6112 344.26334 162.214 344.9193C 157.83427 345.57263 154.75793 343.2185 152.98837 337.51746z" stroke="none" fill="#D3AB83" fill-rule="nonzero" />
        <path d="M216.9913 129.50824C 226.50366 127.680244 224.87405 120.18936 225.06871 113.249565C 231.15927 112.3737 239.18378 115.08856 241.06827 105.331955C 246.69128 106.2136 249.338 109.011566 248.93626 113.51075C 248.54243 117.92142 245.97803 120.422455 241.59288 120.94771C 233.04509 121.97156 233.0424 121.94919 232.96393 131.43884C 228.94685 133.29692 224.94073 134.70145 220.56934 136.14827C 219.14139 134.08229 218.07872 131.97403 216.9913 129.50824z" stroke="none" fill="#D1AA83" fill-rule="nonzero" />
        <path d="M118.17161 193.02547C 125.887474 193.36478 129.07346 190.4508 128.75513 182.45949C 130.90498 184.01605 133.35275 185.76816 135.21582 188.00685C 137.97388 191.321 137.50632 195.98427 134.57925 198.79486C 131.65106 201.6065 127.09293 201.84438 123.7494 199.04921C 121.74453 197.3732 120.09835 195.26813 118.17161 193.02547z" stroke="none" fill="#D3AB83" fill-rule="nonzero" />
        <path d="M414.00824 296.25983C 421.1649 294.84512 422.59036 293.5095 423.84406 286.33063C 426.40955 288.60736 429.7671 290.90253 431.08234 294.05084C 431.88074 295.96204 430.13126 299.71536 428.42816 301.6975C 426.285 304.1919 422.80096 304.64737 419.90643 302.40274C 417.75455 300.734 415.9941 298.56046 414.00824 296.25983z" stroke="none" fill="#D3AB83" fill-rule="nonzero" />
        <path d="M169.01215 304.47815C 166.59879 304.83716 164.15807 304.83716 161.05212 304.83716C 161.05212 302.3377 161.05212 300.09668 161.10695 297.40866C 165.59846 297.34842 168.20157 299.73923 169.01215 304.47815z" stroke="none" fill="#D3AB83" fill-rule="nonzero" />
        <path d="M200.99228 113.52059C 203.42865 113.16081 205.88884 113.16081 208.95769 113.16081C 208.95769 115.616035 208.95769 117.876114 208.89856 120.58373C 204.40688 120.64402 201.78902 118.27141 200.99228 113.52059z" stroke="none" fill="#D3AB83" fill-rule="nonzero" />
        <path d="M377.0066 320.47876C 374.61758 320.8384 372.20328 320.8384 369.03418 320.8384C 369.03418 318.53433 369.03418 316.19995 369.09662 313.41705C 373.60263 313.3434 376.20108 315.73676 377.0066 320.47876z" stroke="none" fill="#D3AB83" fill-rule="nonzero" />
        <path d="M136.98746 321.52124C 139.40224 321.16193 141.84274 321.16193 144.94725 321.16193C 144.94725 323.66272 144.94725 325.90363 144.89252 328.5916C 140.41269 328.63867 137.78783 326.2708 136.98746 321.52124z" stroke="none" fill="#D3AB83" fill-rule="nonzero" />
        <path d="M344.99243 337.5202C 347.38278 337.16025 349.79703 337.16025 352.96524 337.16025C 352.96524 339.4658 352.96524 341.80017 352.9029 344.58307C 348.40787 344.64404 345.7885 342.27258 344.99243 337.5202z" stroke="none" fill="#D3AB83" fill-rule="nonzero" />
        <path d="M233.00638 96.478615C 230.57126 96.838104 228.11113 96.838104 225.04172 96.838104C 225.04172 94.38401 225.04172 92.12398 225.10092 89.41641C 229.60373 89.34342 232.20074 91.73785 233.00638 96.478615z" stroke="none" fill="#D3AB83" fill-rule="nonzero" />
        <path d="M336.92468 170.77136C 336.53268 170.67633 336.11993 170.26309 335.6438 169.55157C 336.02155 169.65324 336.46274 170.0532 336.92468 170.77136z" stroke="none" fill="#D1AA83" fill-rule="nonzero" />
        <path d="M412.2013 295.2431C 412.37366 295.13974 412.7441 295.2453 413.2984 295.58252C 413.1213 295.6935 412.7603 295.57278 412.2013 295.2431z" stroke="none" fill="#D3AB83" fill-rule="nonzero" />
        <path d="M423.7749 285.1924C 423.58215 285.17996 423.34467 284.88028 423.07162 284.28964C 423.26743 284.30084 423.49878 284.603 423.7749 285.1924z" stroke="none" fill="#D3AB83" fill-rule="nonzero" />
        <path d="M335.66876 169.04826C 335.4501 169.09895 335.14566 168.85884 334.735 168.3352C 334.9468 168.28693 335.26492 168.5222 335.66876 169.04826z" stroke="none" fill="#D1AA83" fill-rule="nonzero" />
        <path d="M249.02054 304.93787C 237.47542 302.96753 226.35158 299.86087 216.15399 293.80167C 187.3201 276.66913 171.84471 242.45415 178.38373 209.95673C 185.2161 176.00151 212.31197 150.27492 245.90266 145.8499C 289.60498 140.09282 330.40253 170.32823 336.01212 212.63081C 342.08926 258.45914 312.30664 298.0889 267.15045 304.2683C 266.65762 304.33575 266.17627 304.48697 264.87238 304.70584C 259.04364 304.85437 254.03209 304.89612 249.02054 304.93787zM265.88245 288.22488C 294.9783 285.03876 319.4893 259.11823 320.80597 229.18304C 321.9994 202.05115 310.55954 181.02432 286.50928 168.43686C 262.64908 155.94887 238.76286 158.15309 217.59544 174.84633C 196.09418 191.80287 188.781 214.67734 195.1733 241.32152C 201.2081 266.47562 225.23721 286.98914 249.69034 288.53925C 254.80522 288.4076 259.9201 288.27597 265.88245 288.22488z" stroke="none" fill="#EDEFEF" fill-rule="nonzero" />
        <path d="M249.01306 305.41113C 254.03209 304.89612 259.04364 304.85437 264.51733 304.87524C 264.98447 315.27307 264.98947 325.60828 264.98862 336.39948C 259.97055 336.89673 254.95837 336.93802 249.48172 336.91736C 249.01337 326.53177 249.00948 316.20807 249.01306 305.41113z" stroke="none" fill="#FAB400" fill-rule="nonzero" />
        <path d="M304.37738 369.00897C 304.88123 374.02917 304.92715 379.04596 304.90338 384.52527C 297.34708 384.99194 289.86002 385.0472 282.374 384.9839C 276.44257 384.93375 273.0023 381.90747 273.0292 376.95673C 273.05603 372.021 276.49567 369.06238 282.45798 369.0137C 289.61136 368.9553 296.76562 369.00348 304.37738 369.00897z" stroke="none" fill="#00153D" fill-rule="nonzero" />
        <path d="M248.9661 288.14633C 225.23721 286.98914 201.2081 266.47562 195.1733 241.32152C 188.781 214.67734 196.09418 191.80287 217.59544 174.84633C 238.76286 158.15309 262.64908 155.94887 286.50928 168.43686C 310.55954 181.02432 321.9994 202.05115 320.80597 229.18304C 319.4893 259.11823 294.9783 285.03876 265.44345 287.70868C 264.98734 282.26633 264.97025 277.34024 265.33777 272.27737C 267.3408 271.76306 268.98508 271.47192 270.57364 270.99503C 294.7553 263.7353 309.05975 239.56142 303.8884 214.73396C 299.01056 191.31577 275.7195 174.43861 252.09833 177.20595C 226.84993 180.16393 208.41068 201.25652 209.0381 226.46242C 209.59985 249.03027 225.02425 266.7474 249.0289 272.8589C 248.99596 278.2484 248.98102 283.1974 248.9661 288.14633z" stroke="none" fill="#04A1C9" fill-rule="nonzero" />
        <path d="M264.95312 272.41412C 264.97025 277.34024 264.98734 282.26633 265.0197 287.6684C 259.9201 288.27597 254.80522 288.4076 249.32822 288.34277C 248.98102 283.1974 248.99596 278.2484 249.435 272.84344C 254.89046 272.39633 259.92178 272.40524 264.95312 272.41412z" stroke="none" fill="#FAB504" fill-rule="nonzero" />
        <path d="M265.33777 272.27737C 259.92178 272.40524 254.89046 272.39633 249.453 272.4029C 225.02425 266.7474 209.59985 249.03027 209.0381 226.46242C 208.41068 201.25652 226.84993 180.16393 252.09833 177.20595C 275.7195 174.43861 299.01056 191.31577 303.8884 214.73396C 309.05975 239.56142 294.7553 263.7353 270.57364 270.99503C 268.98508 271.47192 267.3408 271.76306 265.33777 272.27737zM265.76715 255.76178C 267.01474 255.31087 268.28857 254.92116 269.50598 254.39973C 284.10178 248.14848 291.7817 232.62032 287.97546 217.09631C 284.31088 202.15004 269.96768 191.89418 254.39514 193.08525C 239.07619 194.25696 226.38472 206.87334 225.09459 222.21246C 223.78302 237.8065 233.65422 251.69547 249.73793 256.0514C 254.84476 255.95615 259.9516 255.86092 265.76715 255.76178z" stroke="none" fill="#EDEFEF" fill-rule="nonzero" />
        <path d="M248.9429 255.76746C 233.65422 251.69547 223.78302 237.8065 225.09459 222.21246C 226.38472 206.87334 239.07619 194.25696 254.39514 193.08525C 269.96768 191.89418 284.31088 202.15004 287.97546 217.09631C 291.7817 232.62032 284.10178 248.14848 269.50598 254.39973C 268.28857 254.92116 267.01474 255.31087 265.39246 255.3129C 264.9821 249.62857 264.94635 244.39316 265.15863 238.91472C 266.29834 237.93266 267.2492 237.25377 268.0721 236.44473C 273.1427 231.45944 274.4134 224.42389 271.4106 218.18681C 268.40704 211.94807 261.89792 208.30121 255.15736 209.08061C 248.45108 209.85605 242.76834 214.88654 241.36925 221.62679C 239.7934 229.21855 243.15042 234.77814 249.05338 239.58862C 248.99393 245.2869 248.96841 250.52718 248.9429 255.76746z" stroke="none" fill="#03A1C8" fill-rule="nonzero" />
        <path d="M264.91064 239.15773C 264.94635 244.39316 264.9821 249.62857 265.0381 255.31483C 259.9516 255.86092 254.84476 255.95615 249.34041 255.90942C 248.96841 250.52718 248.99393 245.2869 249.4192 239.66281C 254.8706 241.86223 259.89658 241.25139 264.91064 239.15773z" stroke="none" fill="#FAB400" fill-rule="nonzero" />
        <path d="M265.15863 238.91472C 259.89658 241.25139 254.8706 241.86223 249.45312 239.20482C 243.15042 234.77814 239.7934 229.21855 241.36925 221.62679C 242.76834 214.88654 248.45108 209.85605 255.15736 209.08061C 261.89792 208.30121 268.40704 211.94807 271.4106 218.18681C 274.4134 224.42389 273.1427 231.45944 268.0721 236.44473C 267.2492 237.25377 266.29834 237.93266 265.15863 238.91472z" stroke="none" fill="#C50D52" fill-rule="nonzero" />
	</g>
</g>
</svg>