<svg version="1.2" xmlns="http://www.w3.org/2000/svg" xmlns:xlink="http://www.w3.org/1999/xlink" overflow="visible" preserveAspectRatio="none" viewBox="0 0 587 485.1000061035156" xml:space="preserve" y="0px" x="0px" id="Layer_1_1570524341963" width="43.937888198757776" height="36.27692307692309"><g transform="translate(1, 1)"><style type="text/css">
	.st0_1570524341963{fill:#FFFFFF;}
	.st1_1570524341963{fill:#2196F3;}
	.st2_1570524341963{fill:#FF5722;}
	.st3_1570524341963{fill:#7B1FA2;}
	.st4_1570524341963{fill:#ECEFF1;}
	.st5_1570524341963{fill:#9C27B0;}
</style><path d="M64.7,147.3l-36,9l-13,21l2,25l9,17l6.7,9.7l-3.7,17.3l-11,22l-3,17l5,13l7,16l2,6l-6,20l-9,15c0,0,1,15,2,19  s3,14,5,17s5,14,5,14l305,65l207-118l-3-30c0,0-4-12-4-15s0-12,1-15s0.3-9.7,1.7-11.3c1.3-1.7,10.3-19.7,10.3-19.7l-1-12l-9-26  c0,0-3-5-3-9s1-14,1-14l2-13l4-12l2-10c0,0-1-11-2-17s-3-7-4-15s-4-18-4-22s-3-16-3-16L64.7,147.3z" class="st0_1570524341963" vector-effect="non-scaling-stroke"/><g>
	<path d="M334.6,481.5c-2.7,1.5-5.9,2-8.9,1.3l0,0c-0.8-0.2-76.3-17.1-151-34c-43.9-9.9-78.8-17.8-104-23.5   c-14.2-3.2-26.1-5.9-34.4-7.9c-16.8-3.9-16.8-3.9-19.6-6.9c-15.8-17.1-21-42.1-13.1-63.6c7.1-19.4,23.2-32.1,44.2-34.8L51,337   c-15.7,2-21.7,12.5-23.9,18.6c-4.2,11.5-1.8,25.4,5.8,35.4c27.6,6.6,207.2,47,288.9,65.3c3,0.7,6.2,0.2,8.9-1.3l200.7-113.2   c-2.5-5.3-5.1-12.2-6.9-20.3c-4-17.9-4.9-45.2,14-74.2l20.9,13.7c-26.7,40.9-2,76.9-0.9,78.4l8.2,11.3l-12.2,6.8L334.6,481.5z" class="st1_1570524341963" vector-effect="non-scaling-stroke"/>
</g><g>
	<path d="M334.6,393.5c-2.7,1.5-5.9,2-8.9,1.3l0,0c-0.8-0.2-76.3-17.1-151-34c-43.9-9.9-78.8-17.8-104-23.5   c-14.2-3.2-26.1-5.9-34.4-7.9c-16.8-3.9-16.8-3.9-19.6-6.9c-15.8-17.1-21-42.1-13.1-63.6c7.1-19.4,23.2-32.1,44.2-34.8L51,249   c-15.7,2-21.7,12.5-23.9,18.6c-4.2,11.5-1.8,25.4,5.8,35.4c27.6,6.6,207.2,47,288.9,65.3c3,0.7,6.2,0.2,8.9-1.3l200.7-113.2   c-2.5-5.3-5.1-12.2-6.9-20.3c-4-17.9-4.9-45.2,14-74.2l20.9,13.7c-26.7,40.9-2,76.9-0.9,78.4l8.2,11.3l-12.2,6.8L334.6,393.5z" class="st2_1570524341963" vector-effect="non-scaling-stroke"/>
</g><g>
	<path d="M334.6,303.5c-2.7,1.5-5.9,2-8.9,1.3l0,0c-0.8-0.2-76.3-17.1-151-34c-43.9-9.9-78.8-17.8-104-23.5   c-14.2-3.2-26.1-5.9-34.4-7.9c-16.8-3.9-16.8-3.9-19.6-6.9c-15.8-17.1-21-42.1-13.1-63.6c7.1-19.4,23.2-32.1,44.2-34.8L51,159   c-15.7,2-21.7,12.5-23.9,18.6c-4.2,11.5-1.8,25.4,5.8,35.4c27.6,6.6,207.2,47,288.9,65.3c3,0.7,6.2,0.2,8.9-1.3l200.7-113.2   c-2.5-5.3-5.1-12.2-6.9-20.3c-4-17.9-4.9-45.2,14-74.2L559.4,83c-27,41.3-1.2,77.9-1,78.3l8.2,11.3L334.6,303.5z" class="st3_1570524341963" vector-effect="non-scaling-stroke"/>
</g><g>
	<path d="M516.7,147.7L324.8,255.9l-4.7-1.1c-0.8-0.2-76.3-17.1-151-34c-43.9-9.9-78.8-17.8-104-23.5   c-7.7-1.7-14.7-3.3-20.8-4.7v9c6.1,1.4,13.1,3,20.8,4.7c25.1,5.7,60.1,13.6,104,23.5c74.7,16.8,150.3,33.8,151,34l4.7,1.1   l191.9-108.2V147.7z" class="st4_1570524341963" vector-effect="non-scaling-stroke"/>
</g><g>
	<path d="M516.7,125.7L324.8,233.9l-4.7-1.1c-0.8-0.2-76.3-17.1-151-34c-43.9-9.9-78.8-17.8-104-23.5   c-7.7-1.7-14.7-3.3-20.8-4.7v9c6.1,1.4,13.1,3,20.8,4.7c25.1,5.7,60.1,13.6,104,23.5c74.7,16.8,150.3,33.8,151,34l4.7,1.1   l191.9-108.2V125.7z" class="st4_1570524341963" vector-effect="non-scaling-stroke"/>
</g><g>
	<path d="M516.7,236.7L324.8,344.9l-4.7-1.1c-0.8-0.2-76.3-17.1-151-34c-43.9-9.9-78.8-17.8-104-23.5   c-7.7-1.7-14.7-3.3-20.8-4.7v9c6.1,1.4,13.1,3,20.8,4.7c25.1,5.7,60.1,13.6,104,23.5c74.7,16.8,150.3,33.8,151,34l4.7,1.1   l191.9-108.2V236.7z" class="st4_1570524341963" vector-effect="non-scaling-stroke"/>
</g><g>
	<path d="M516.7,214.7L324.8,322.9l-4.7-1.1c-0.8-0.2-76.3-17.1-151-34c-43.9-9.9-78.8-17.8-104-23.5   c-7.7-1.7-14.7-3.3-20.8-4.7v9c6.1,1.4,13.1,3,20.8,4.7c25.1,5.7,60.1,13.6,104,23.5c74.7,16.8,150.3,33.8,151,34l4.7,1.1   l191.9-108.2V214.7z" class="st4_1570524341963" vector-effect="non-scaling-stroke"/>
</g><g>
	<path d="M516.7,324.7L324.8,432.9l-4.7-1.1c-0.8-0.2-76.3-17.1-151-34c-43.9-9.9-78.8-17.8-104-23.5   c-7.7-1.7-14.7-3.3-20.8-4.7v9c6.1,1.4,13.1,3,20.8,4.7c25.1,5.7,60.1,13.6,104,23.5c74.7,16.8,150.3,33.8,151,34l4.7,1.1   l191.9-108.2V324.7z" class="st4_1570524341963" vector-effect="non-scaling-stroke"/>
</g><g>
	<path d="M516.7,302.7L324.8,410.9l-4.7-1.1c-0.8-0.2-76.3-17.1-151-34c-43.9-9.9-78.8-17.8-104-23.5   c-7.7-1.7-14.7-3.3-20.8-4.7v9c6.1,1.4,13.1,3,20.8,4.7c25.1,5.7,60.1,13.6,104,23.5c74.7,16.8,150.3,33.8,151,34l4.7,1.1   l191.9-108.2V302.7z" class="st4_1570524341963" vector-effect="non-scaling-stroke"/>
</g><g>
	<path d="M15.7,147.9L326,214.3c2.9,0.6,6,0.2,8.6-1.3L579.8,78.8c8.1-4.5,6.3-16.6-2.7-18.6L294.6,0.3   c-3-0.6-6.2-0.2-8.9,1.3L15.7,147.9z" class="st5_1570524341963" vector-effect="non-scaling-stroke"/>
</g><g>
	<path d="M354.5,136.3l-150.2-31.2c-4.6-1-5.5-7.2-1.3-9.3l67.6-35.3c1-0.5,2.2-0.7,3.3-0.5L426,91.8   c4.5,0.9,5.5,7,1.4,9.3l-60.5,33.4C363.1,136.5,358.7,137.2,354.5,136.3z" class="st0_1570524341963" vector-effect="non-scaling-stroke"/>
</g></g></svg>