<svg xmlns="http://www.w3.org/2000/svg" xml:space="preserve" viewBox="0 237.4 283.5 159.4"><path fill="none" d="M0 237.4h283.5v159.4H0z"/><g transform="translate(-11.44 -1.66)"><rect width="175.537" height="36.001" x="66.338" y="345.742" ry="4.609" style="font-variation-settings:normal;opacity:.1;vector-effect:none;fill:#000;fill-opacity:1;stroke:none;stroke-width:.999997;stroke-linecap:butt;stroke-linejoin:miter;stroke-miterlimit:4;stroke-dasharray:none;stroke-dashoffset:0;stroke-opacity:1;-inkscape-stroke:none;paint-order:stroke fill markers;stop-color:#000"/><rect width="175.537" height="36.001" x="64.505" y="342.794" ry="4.609" style="font-variation-settings:normal;vector-effect:none;fill:#3396da;fill-opacity:1;stroke:none;stroke-width:.999988;stroke-linecap:butt;stroke-linejoin:miter;stroke-miterlimit:4;stroke-dasharray:none;stroke-dashoffset:0;stroke-opacity:1;-inkscape-stroke:none;paint-order:stroke fill markers;stop-color:#000"/><rect width="75.242" height="9.481" x="69.794" y="355.143" ry="1.215" style="font-variation-settings:normal;vector-effect:none;fill:#1d5479;fill-opacity:1;stroke:none;stroke-width:.999994;stroke-linecap:butt;stroke-linejoin:miter;stroke-miterlimit:4;stroke-dasharray:none;stroke-dashoffset:0;stroke-opacity:1;-inkscape-stroke:none;paint-order:stroke fill markers;stop-color:#000"/><rect width="26.428" height="26.428" x="176.285" y="347.58" ry="2.639" style="font-variation-settings:normal;vector-effect:none;fill:#3db991;fill-opacity:1;stroke:none;stroke-width:1;stroke-linecap:butt;stroke-linejoin:miter;stroke-miterlimit:4;stroke-dasharray:none;stroke-dashoffset:0;stroke-opacity:1;-inkscape-stroke:none;paint-order:stroke fill markers;stop-color:#000"/><path fill="#fff" d="m186.467 367.564-6.801-6.608c-.585-.58-.585-.58 0-1.36.582-.776.97-.97 1.555-1.553.582-.584 1.553-.584 2.33 0 .971.97 1.943 1.553 3.304 2.526.583.582 1.555.582 2.333 0l6.218-6.218c.582-.584 1.555-.584 2.331 0 .778.582.97.582 1.361 1.36.582.583.97.97.388 1.554l-10.493 9.716c-.971.777-1.944.777-2.526.583z" style="stroke-width:.75686"/><rect width="26.428" height="26.428" x="207.479" y="347.58" ry="2.639" style="font-variation-settings:normal;vector-effect:none;fill:#da4d6b;fill-opacity:1;stroke:none;stroke-width:1;stroke-linecap:butt;stroke-linejoin:miter;stroke-miterlimit:4;stroke-dasharray:none;stroke-dashoffset:0;stroke-opacity:1;-inkscape-stroke:none;paint-order:stroke fill markers;stop-color:#000"/><path fill="#fff" d="m223.51 360.699 3.304-3.498c.583-.583.389-.97-.388-1.167a6.162 6.162 0 0 0-1.167-.97c-.582-.584-1.166-.584-1.75 0l-2.913 2.914-3.498-3.304c-.584-.582-.97-.388-1.167.39a6.162 6.162 0 0 0-.97 1.165c-.584.583-.584 1.167 0 1.75l2.914 2.914-3.304 3.499c-.582.582-.388.97.388 1.164.39.39.585.584 1.167.973.584.582 1.167.582 1.75 0l2.914-2.916 3.498 3.304c.583.584.971.388 1.167-.388.387-.39.583-.583.97-1.167.584-.582.584-1.167 0-1.749z" style="stroke-width:.75686"/></g><g transform="translate(-11.44 2.34)"><rect width="175.537" height="36.001" x="66.338" y="254.723" ry="4.609" style="font-variation-settings:normal;opacity:.1;vector-effect:none;fill:#000;fill-opacity:1;stroke:none;stroke-width:.999997;stroke-linecap:butt;stroke-linejoin:miter;stroke-miterlimit:4;stroke-dasharray:none;stroke-dashoffset:0;stroke-opacity:1;-inkscape-stroke:none;paint-order:stroke fill markers;stop-color:#000"/><rect width="175.537" height="36.001" x="64.505" y="251.776" ry="4.609" style="font-variation-settings:normal;vector-effect:none;fill:#3396da;fill-opacity:1;stroke:none;stroke-width:.999988;stroke-linecap:butt;stroke-linejoin:miter;stroke-miterlimit:4;stroke-dasharray:none;stroke-dashoffset:0;stroke-opacity:1;-inkscape-stroke:none;paint-order:stroke fill markers;stop-color:#000"/><rect width="75.242" height="11.302" x="69.794" y="264.124" ry="1.448" style="font-variation-settings:normal;vector-effect:none;fill:#1d5479;fill-opacity:1;stroke:none;stroke-width:.999994;stroke-linecap:butt;stroke-linejoin:miter;stroke-miterlimit:4;stroke-dasharray:none;stroke-dashoffset:0;stroke-opacity:1;-inkscape-stroke:none;paint-order:stroke fill markers;stop-color:#000"/><rect width="30.183" height="30.183" x="174.409" y="254.684" ry="3.014" style="font-variation-settings:normal;vector-effect:none;fill:#1d5479;fill-opacity:1;stroke:none;stroke-width:1;stroke-linecap:butt;stroke-linejoin:miter;stroke-miterlimit:4;stroke-dasharray:none;stroke-dashoffset:0;stroke-opacity:1;-inkscape-stroke:none;paint-order:stroke fill markers;stop-color:#000"/><rect width="26.428" height="26.428" x="176.285" y="256.562" ry="2.639" style="font-variation-settings:normal;vector-effect:none;fill:gray;fill-opacity:1;stroke:none;stroke-width:1;stroke-linecap:butt;stroke-linejoin:miter;stroke-miterlimit:4;stroke-dasharray:none;stroke-dashoffset:0;stroke-opacity:1;-inkscape-stroke:none;paint-order:stroke fill markers;stop-color:#000"/><path fill="#fff" d="m186.465 276.549-6.803-6.608c-.582-.584-.582-.584 0-1.36.585-.779.97-.97 1.555-1.555.585-.583 1.555-.583 2.334 0 .97.97 1.942 1.555 3.303 2.525.582.585 1.553.585 2.33 0l6.218-6.218c.585-.582 1.555-.582 2.334 0 .776.584.97.584 1.36 1.36.582.584.97.971.388 1.556l-10.493 9.715c-.97.779-1.943.779-2.526.585z" style="stroke-width:.75686"/><rect width="26.428" height="26.428" x="207.479" y="256.562" ry="2.639" style="font-variation-settings:normal;vector-effect:none;fill:gray;fill-opacity:1;stroke:none;stroke-width:1;stroke-linecap:butt;stroke-linejoin:miter;stroke-miterlimit:4;stroke-dasharray:none;stroke-dashoffset:0;stroke-opacity:1;-inkscape-stroke:none;paint-order:stroke fill markers;stop-color:#000"/><path fill="#fff" d="m223.51 269.679 3.304-3.498c.583-.583.389-.97-.388-1.167-.388-.388-.584-.583-1.167-.97-.582-.584-1.166-.584-1.75 0l-2.913 2.913-3.498-3.304c-.584-.581-.97-.387-1.167.39-.387.388-.581.583-.97 1.166-.584.583-.584 1.167 0 1.75l2.914 2.914-3.304 3.499c-.582.582-.388.97.388 1.164.39.39.585.584 1.167.972.584.583 1.167.583 1.75 0l2.914-2.915 3.498 3.304c.583.584.971.388 1.167-.39a6.162 6.162 0 0 0 .97-1.166c.584-.581.584-1.166 0-1.748z" style="stroke-width:.75686"/></g><g transform="translate(-11.441 .34)"><rect width="175.537" height="36.001" x="66.339" y="300.235" ry="4.609" style="font-variation-settings:normal;opacity:.1;vector-effect:none;fill:#000;fill-opacity:1;stroke:none;stroke-width:.999997;stroke-linecap:butt;stroke-linejoin:miter;stroke-miterlimit:4;stroke-dasharray:none;stroke-dashoffset:0;stroke-opacity:1;-inkscape-stroke:none;paint-order:stroke fill markers;stop-color:#000"/><rect width="175.537" height="36.001" x="64.506" y="297.284" ry="4.609" style="font-variation-settings:normal;vector-effect:none;fill:#3396da;fill-opacity:1;stroke:none;stroke-width:.999988;stroke-linecap:butt;stroke-linejoin:miter;stroke-miterlimit:4;stroke-dasharray:none;stroke-dashoffset:0;stroke-opacity:1;-inkscape-stroke:none;paint-order:stroke fill markers;stop-color:#000"/><rect width="75.242" height="9.481" x="69.794" y="309.634" ry="1.215" style="font-variation-settings:normal;vector-effect:none;fill:#1d5479;fill-opacity:1;stroke:none;stroke-width:.999994;stroke-linecap:butt;stroke-linejoin:miter;stroke-miterlimit:4;stroke-dasharray:none;stroke-dashoffset:0;stroke-opacity:1;-inkscape-stroke:none;paint-order:stroke fill markers;stop-color:#000"/><rect width="30.183" height="30.183" x="205.601" y="300.194" ry="3.014" style="font-variation-settings:normal;vector-effect:none;fill:#1d5479;fill-opacity:1;stroke:none;stroke-width:1;stroke-linecap:butt;stroke-linejoin:miter;stroke-miterlimit:4;stroke-dasharray:none;stroke-dashoffset:0;stroke-opacity:1;-inkscape-stroke:none;paint-order:stroke fill markers;stop-color:#000"/><rect width="26.428" height="26.428" x="176.285" y="302.07" ry="2.639" style="font-variation-settings:normal;vector-effect:none;fill:gray;fill-opacity:1;stroke:none;stroke-width:1;stroke-linecap:butt;stroke-linejoin:miter;stroke-miterlimit:4;stroke-dasharray:none;stroke-dashoffset:0;stroke-opacity:1;-inkscape-stroke:none;paint-order:stroke fill markers;stop-color:#000"/><path fill="#fff" d="m186.467 322.058-6.801-6.608c-.585-.582-.585-.582 0-1.36.582-.777.97-.971 1.555-1.554.582-.584 1.553-.584 2.33 0 .971.97 1.943 1.553 3.304 2.526.583.582 1.555.582 2.333 0l6.218-6.219c.582-.583 1.555-.583 2.331 0 .778.583.97.583 1.361 1.361.582.583.97.97.388 1.554l-10.493 9.716c-.971.777-1.944.777-2.526.583z" style="stroke-width:.75686"/><rect width="26.428" height="26.428" x="207.479" y="302.07" ry="2.639" style="font-variation-settings:normal;vector-effect:none;fill:gray;fill-opacity:1;stroke:none;stroke-width:1;stroke-linecap:butt;stroke-linejoin:miter;stroke-miterlimit:4;stroke-dasharray:none;stroke-dashoffset:0;stroke-opacity:1;-inkscape-stroke:none;paint-order:stroke fill markers;stop-color:#000"/><path fill="#fff" d="m223.51 315.188 3.304-3.5c.583-.581.389-.97-.388-1.164a6.162 6.162 0 0 0-1.167-.971c-.582-.584-1.166-.584-1.75 0l-2.913 2.914-3.498-3.304c-.584-.583-.97-.389-1.167.39-.387.388-.581.582-.97 1.167-.584.58-.584 1.164 0 1.747l2.914 2.915-3.304 3.498c-.582.582-.388.97.388 1.167.39.388.585.582 1.167.97.584.584 1.167.584 1.75 0l2.914-2.916 3.498 3.306c.583.582.971.388 1.167-.39a6.162 6.162 0 0 0 .97-1.165c.584-.584.584-1.167 0-1.75z" style="stroke-width:.75686"/></g></svg>