<svg height="36" width="36" xmlns="http://www.w3.org/2000/svg"><path fill="currentColor" d="M13.5 29.25v-16.5q0-.328-.21-.54-.212-.21-.54-.21h-1.5q-.328 0-.54.21-.21.212-.21.54v16.5q0 .328.21.54.212.21.54.21h1.5q.328 0 .54-.21.21-.212.21-.54Zm6 0v-16.5q0-.328-.21-.54-.212-.21-.54-.21h-1.5q-.328 0-.54.21-.21.212-.21.54v16.5q0 .328.21.54.212.21.54.21h1.5q.328 0 .54-.21.21-.212.21-.54Zm6 0v-16.5q0-.328-.21-.54-.212-.21-.54-.21h-1.5q-.328 0-.54.21-.21.212-.21.54v16.5q0 .328.21.54.212.21.54.21h1.5q.328 0 .54-.21.21-.212.21-.54ZM12.75 6h10.5l-1.125-2.742q-.164-.211-.398-.258h-7.43q-.235.047-.399.258zm21.75.75v1.5q0 .328-.21.54-.212.21-.54.21H31.5v22.219q0 1.945-1.102 3.363Q29.297 36 27.75 36H8.25q-1.547 0-2.648-1.371Q4.5 33.258 4.5 31.312V9H2.25q-.328 0-.54-.21-.21-.212-.21-.54v-1.5q0-.328.21-.54.212-.21.54-.21h7.242l1.64-3.914q.352-.867 1.266-1.477Q13.313 0 14.25 0h7.5q.938 0 1.852.61.914.609 1.265 1.476L26.507 6h7.243q.328 0 .54.21.21.212.21.54Z" style="font-variation-settings:normal;vector-effect:none;fill:gray;fill-opacity:.941176;stroke-width:2;stroke-linecap:butt;stroke-linejoin:miter;stroke-miterlimit:4;stroke-dasharray:none;stroke-dashoffset:0;stroke-opacity:1;-inkscape-stroke:none;stop-color:#000;opacity:1;stop-opacity:1"/></svg>